<?xml version="1.0" standalone="no"?>
<!DOCTYPE svg PUBLIC "-//W3C//DTD SVG 1.1//EN" "http://www.w3.org/Graphics/SVG/1.1/DTD/svg11.dtd" >
<svg xmlns="http://www.w3.org/2000/svg">
<metadata>
This is a custom SVG webfont generated by Font Squirrel.
Copyright   : Copyright 2004 Johan Winge
Designer    : Johan Winge
</metadata>
<defs>
<font id="SVBasicManualBook" horiz-adv-x="1169" >
<font-face units-per-em="2048" ascent="1638" descent="-410" />
<missing-glyph horiz-adv-x="500" />
<glyph unicode=" " />
<glyph unicode="!" d="M324 1345v17q0 80 88 123q23 9 49 8q51 0 99 -39q40 -43 40 -92v-11l-57 -816q-23 -111 -79 -111q-46 0 -71 77q-6 20 -6 37zM361 100q0 71 63 99q20 6 42 6q68 0 94 -63q9 -20 9 -42q0 -43 -29 -74q-28 -26 -74 -26q-74 0 -99 60q-6 20 -6 40z" />
<glyph unicode="&#x22;" d="M105 1343v17q0 57 69 94q23 11 42 11q40 0 80 -34q34 -31 34 -71v-15l-48 -458q0 -43 -37 -76q-11 -14 -23 -15q-40 0 -63 69q-3 17 -3 25zM569 1343v17q0 57 68 94q23 11 40 11q43 0 82 -34q34 -31 35 -71v-15l-49 -458q0 -43 -37 -76q-11 -14 -22 -15q-40 0 -63 69 q-3 17 -3 25z" />
<glyph unicode="#" d="M-23 566q0 43 14 57q17 23 103 23l82 3l43 207h-54q-108 0 -119 51q-3 14 -3 29q0 57 54 71q23 6 68 8l88 6l83 361q20 111 76 117q11 3 29 3q37 0 51 -17q9 -11 9 -43q0 -26 -6 -60l-267 -1260q-23 -117 -77 -122h-29q-43 0 -51 14q-11 14 -11 43q0 26 8 65l74 362 l-48 2q-111 0 -114 49q-3 14 -3 31zM373 57q0 26 5 62l268 1261q23 114 76 119q17 3 29 3q43 0 53 -17t10 -46q0 -26 -6 -59l-77 -362l80 -3q114 0 122 -51v-28q0 -60 -51 -71q-26 -6 -71 -9l-100 -6l-54 -204h85q114 0 120 -49v-31q0 -43 -14 -57q-26 -23 -83 -23h-23h-48 q-60 0 -74 -25l-80 -342q-23 -114 -76 -119h-29q-40 0 -54 14q-8 15 -8 43z" />
<glyph unicode="$" d="M-6 253q0 37 20 46q34 17 57 17q9 0 20 -3q37 -14 83 -80q46 -51 116 -62q9 -3 17 -3q40 0 57 34q6 14 6 28v419q0 60 -63 71q-225 57 -287 258q-20 63 -20 140q0 139 79.5 238.5t219.5 131.5q63 14 74 91v22q0 57 25 83q14 14 51 14q43 0 60 -17q20 -28 20 -102 q9 -77 80 -86q114 -20 162 -48q117 -63 116 -134q0 -11 -5 -28q-9 -20 -23 -31q-20 -20 -48 -20q-48 0 -125 51q-71 43 -111 43q-46 0 -46 -60v-384q0 -17 31 -26q139 -26 236 -142q111 -125 111 -296q0 -239 -182 -347q-57 -37 -136 -54q-60 -14 -60 -63v-73 q0 -105 -45 -114q-17 -6 -35 -6q-37 0 -51 14q-28 28 -28 106v65q-3 31 -24.5 44t-49.5 19q-94 11 -174 56q-28 14 -76 63q-40 40 -49 102q-3 14 -3 23zM159 1129q0 -111 80 -185q51 -48 88 -48q11 0 20 3q23 9 23 40v341q0 48 -29 48q-6 0 -14 -2q-77 -20 -128 -89 q-40 -51 -40 -108zM529 208q0 -20 11 -29q3 -6 12 -5q14 0 31 5q159 48 159 231q0 176 -153 264q-14 9 -23 9q-26 0 -31 -32q-6 -11 -6 -25v-418z" />
<glyph unicode="%" d="M-3 165q0 28 31 68l202 285q40 51 72 51q6 0 14 -3q20 -11 37 -31q11 -9 11 -20q0 -23 -37 -71l-202 -285q-37 -51 -71 -51q-6 0 -14 9q-43 14 -43 48zM0 1081v136q0 208 102 256q65 28 145 29q131 0 191 -63q60 -65 60 -224v-143q0 -148 -60 -204q-60 -51 -191 -52 q-171 0 -216 94q-31 60 -31 171zM148 1138q0 -102 11 -140q17 -54 88 -54q100 0 106 114v77q0 111 -12 145q-26 60 -94 60q-71 0 -88 -60q-11 -37 -11 -142zM466 449q0 208 106 254q63 31 142 31q131 0 185 -63q65 -68 65 -224v-140q0 -151 -65 -207q-54 -51 -185 -52 q-202 0 -236 140q-11 57 -12 119v142zM600 1041q0 20 34 71l199 282q31 51 63 51q11 0 23 -6q43 -14 42 -48q0 -26 -31 -74l-196 -279q-40 -51 -71 -51q-6 0 -17 3q-46 25 -46 51zM612 370q0 -102 11 -140q20 -54 91 -54q68 0 88 54q17 40 17 137q0 154 -48 188 q-20 17 -57 17q-97 0 -102 -123v-79z" />
<glyph unicode="&#x26;" d="M-17 390v22q0 159 74 276q57 82 205 217q31 31 31 73q0 11 -20 80q-6 28 -20 54q-40 77 -40 140v11q6 77 63 145q63 77 176 77q165 0 211 -145q11 -40 11 -83q0 -97 -31 -151l-17 -25q-6 -11 -14 -20q-43 -63 -60 -154v-20q0 -40 20 -116q28 -105 71 -128q9 -6 20 -6 q31 0 71 57q28 43 40 51q46 43 111 43q48 0 59 -26q23 -46 23 -74q0 -48 -37 -71q-185 -88 -185 -202q0 -48 29 -99q26 -46 88 -97q23 -20 45 -31q60 -37 60 -83q0 -11 -5.5 -25.5t-14.5 -28.5q-17 -26 -57 -25q-17 0 -28 2q-71 14 -128 86q-43 51 -65.5 51t-45.5 -30 l-40 -53q-54 -60 -210 -59q-282 0 -359 185q-31 71 -31 182zM131 398q0 -171 119 -219q37 -14 74 -14q174 0 219 117q17 46 17 113q0 91 -108 268l-42 79q-20 40 -60 40q-11 0 -31 -7t-40 -30l-54 -62q-57 -65 -77 -157q-14 -51 -17 -128zM375 1240q0 -77 37 -122 q9 -11 26 -14q28 0 51 54q3 9 23 82q0 46 -43 68q-9 6 -25 6h-9q-20 0 -40 -23q-20 -20 -20 -51z" />
<glyph unicode="'" d="M341 1343v17q0 57 71 94q17 11 40 11q40 0 83 -34q31 -31 31 -71v-15l-48 -458q0 -48 -34 -76q-14 -14 -29 -15q-37 0 -57 69q-6 17 -5 25z" />
<glyph unicode="(" d="M193 740q0 370 225 714q68 102 145 187q40 48 71 49q9 0 15 -6q43 -31 42 -51q0 -26 -40 -71q-151 -176 -247 -419q-88 -225 -88 -429q0 -228 153 -535q74 -137 205 -293q40 -43 40 -68q0 -14 -6 -23q-31 -37 -48 -37q-3 0 -3 3q-31 6 -68 46q-270 293 -364 668 q-32 134 -32 265z" />
<glyph unicode=")" d="M179 -156q0 26 37 65l74 91q139 176 228 424q60 174 59 313q0 310 -199 651q-65 122 -139 196q-37 43 -37 71q0 23 23 40q20 17 40 17q23 0 62 -48q259 -279 344 -643q28 -125 29 -256q0 -373 -245 -739q-68 -105 -151 -197q-37 -46 -65 -45q-23 0 -37 20q-23 17 -23 40z " />
<glyph unicode="*" d="M0 959v28q0 43 14 54q26 26 105 26h120q17 0 34 25q14 17 14 29q0 9 -8 14l-54 105q-31 54 -32 88q0 28 20 40q37 31 66 31q9 0 14 -5q34 -9 74 -77l54 -102q6 -11 34 -20h9q20 0 25 17l60 102q46 77 88 77q9 0 14 -3q68 -23 69 -71q0 -9 -3 -17q-6 -28 -29 -66l-62 -102 q-3 -6 -3 -20q0 -23 14 -40q9 -6 14 -5h131q114 0 117 -52q6 -11 6 -28q0 -40 -18 -54q-26 -26 -105 -26h-136q-17 0 -29 -22q-3 -11 -3 -20t3 -17l60 -111q31 -54 31 -91q0 -26 -20 -43q-43 -28 -68 -28q-6 0 -8 2q-34 11 -74 83l-66 117q-3 11 -28 11q-20 0 -26 -17 l-65 -108q-48 -80 -86 -80q-6 0 -17 3q-46 23 -51 28q-17 11 -17 37q0 34 34 91l66 120q6 6 5 8q0 17 -31 29q-9 9 -14 8h-123q-113 1 -119 52z" />
<glyph unicode="+" d="M-20 495q0 40 20 57q23 23 117 23h230q34 0 65 42q6 9 6 20l-3 199q0 119 49 123q14 3 31 2q43 0 57 -17q23 -23 23 -108v-193q0 -40 48 -60q17 -9 28 -8h231q134 0 139 -49v-31q0 -40 -17 -51q-34 -28 -122 -29h-236q-34 0 -60 -42q-11 -9 -11 -20v-202q0 -111 -49 -123 q-14 -3 -31 -2q-40 0 -57 20q-23 23 -23 105l3 202q0 43 -40 59q-9 3 -25 3h-236q-119 0 -134 54q-3 15 -3 26z" />
<glyph unicode="," d="M265 202q0 71 56 119q48 40 131 40q74 0 128 -54t54 -128q0 -128 -119 -321q-117 -196 -188 -196q-31 0 -45 36v20q0 34 37 66q80 71 125 165q11 28 17 60q-74 0 -134 62q-62 60 -62 131z" />
<glyph unicode="-" d="M77 455v40q0 57 25 71q17 9 46 9h373h-3h-9h310q139 0 139.5 -80t-139.5 -80h-603q-133 0 -139 40z" />
<glyph unicode="." d="M273 179q0 74 52.5 128t126.5 54t128 -54t54 -128t-54 -126.5t-128 -52.5t-126.5 52.5t-52.5 126.5z" />
<glyph unicode="/" d="M-17 -88q0 34 23 82l827 1616q40 80 86 80h14q65 -14 65 -69q0 -37 -25 -85l-825 -1616q-46 -80 -83 -79h-14q-43 14 -51 28q-17 15 -17 43z" />
<glyph unicode="0" d="M0 475v549q0 361 245 444q85 31 204 31h26q219 0 321 -105q108 -108 109 -370v-549q0 -373 -262 -449q-74 -23 -171 -23h-23q-341 0 -421 253q-28 91 -28 219zM159 466q0 -159 66 -227q65 -80 224 -80q236 0 276 177q17 54 17 130v569q0 171 -59 236q-60 68 -234 69 q-236 0 -275 -174q-14 -57 -15 -131v-569z" />
<glyph unicode="1" d="M159 1126q0 40 37 89q17 20 32 31q43 60 187 168q114 88 171 88q122 0 122 -120v-1260q0 -117 -51 -122h-31q-40 0 -54 14q-26 26 -26 108v1115q0 28 -28 34h-15q-26 0 -56 -25l-128 -111l-37 -29q-37 -34 -69 -34q-6 -3 -8 -2q-11 0 -23 14q-23 19 -23 42z" />
<glyph unicode="2" d="M31 74q0 34 37 85l86 131l432 560l71 89q85 100 85 202q0 77 -74 136q-82 63 -198.5 63t-182.5 -54q-54 -46 -62 -97q-11 -68 -43 -83q-11 -11 -34 -11q-43 0 -71 40q-17 26 -17 77q0 102 139 196q131 94 285 94q202 0 338 -148q82 -85 83 -174q0 -162 -128 -318 l-458 -575q-20 -20 -29 -57q-3 -9 -3 -14q0 -26 26 -42q23 -14 74 -15h395q114 0 117 -51q6 -11 6 -28q0 -40 -18 -54q-23 -26 -105 -26h-623q-91 0 -116 46q-12 11 -12 28z" />
<glyph unicode="3" d="M28 68q0 63 97 66q151 11 339 122q82 51 153 131q65 65 97 148q11 40 11 79v15q0 188 -173 216q-54 11 -125 17q-60 6 -66 62v20q0 43 26 74l188 225q26 26 25 48q0 14 -6 26q-11 23 -45 23h-390q-60 0 -89.5 22.5t-29.5 56.5q0 54 77 74q23 9 42 9h552q105 0 137 -63 q11 -23 11 -48q0 -40 -40 -88l-233 -307q105 -28 205 -123q114 -105 114 -230q-14 -230 -308 -450q-176 -125 -347 -179q-46 -14 -76 -14h-52q-94 0 -94 68z" />
<glyph unicode="4" d="M0 393v56q0 122 54 219l341 717q20 46 60 74q28 20 48 20q17 0 32 -6q34 -17 40 -59v-9q0 -26 -20 -68l-362 -737q-26 -54 -25 -82q0 -14 6 -20q14 -31 88 -32h298q60 0 69 9q14 11 14 71v464q0 85 25 105q17 17 55.5 17t53.5 -20q26 -23 25 -102v-464q0 -60 10 -70 t73 -10q102 0 105 -48q3 -17 3 -31q0 -43 -12 -60q-20 -23 -96 -23q-63 0 -71 -8q-11 -14 -12 -71v-103q0 -117 -45 -122h-26q-40 0 -57 14q-31 28 -31 108v103q0 57 -9 71q-11 9 -71 8h-404q-153 1 -159 89z" />
<glyph unicode="5" d="M0 60q0 20 20 42q31 40 80 40q156 0 355 148q159 111 213 245q14 37 15 77v14q0 134 -71 188q-65 51 -231 51h-176q-97 0 -111 59q-6 23 -6 63v395q0 119 117 120h429q111 0 117 -48v-35q0 -40 -11 -57q-26 -23 -106 -22h-307q-60 0 -70 -10t-10 -67v-157q0 -60 9 -71 q11 -11 71 -11h148q233 0 321 -188q46 -97 46 -207v-17q0 -265 -356 -487q-193 -122 -364 -131h-17q-63 0 -91 34q-14 18 -14 32z" />
<glyph unicode="6" d="M0 415v57q0 179 46 310q82 239 278 433q230 225 327 224q20 0 35 -8l8 -17q9 -14 9 -32q0 -28 -35 -62q-108 -80 -230 -202q-137 -134 -156 -236q-3 -11 -3 -20q0 -37 28 -46h14h17q14 3 35 6l79 9h-3q324 0 424 -245q31 -74 32 -171q0 -193 -117 -301 q-119 -114 -339 -114q-216 0 -332 114q-117 108 -117 301zM159 415q0 -117 80 -185q74 -71 213 -71q210 0 270 148q20 48 20 108q0 114 -74 182q-77 71 -216 71q-210 0 -273 -147q-20 -49 -20 -106z" />
<glyph unicode="7" d="M0 1388v31q0 43 14 60q26 23 105 23h663q122 0 137 -63q3 -6 3 -14q0 -31 -17 -85l-387 -1064l-34 -134q-40 -142 -148 -142q-80 0 -80 77q0 17 9 40q6 34 42 150q11 23 20 37l387 928q6 11 6 31q0 77 -71 77h-530q-113 0 -119 48z" />
<glyph unicode="8" d="M0 427q9 156 65 241l23 32l31 57q6 11 6 25q0 34 -28 74q-63 80 -63 287q9 168 114 265q108 97 304 97q193 0 305.5 -107t112.5 -277q0 -80 -34 -182q-11 -31 -51 -114q-17 -34 -17 -54q0 -26 20 -51l45 -54q71 -88 72 -239q0 -176 -134 -301.5t-322 -125.5 q-182 0 -321 125q-128 117 -128 302zM159 428.5q0 -109.5 85.5 -189.5t204.5 -80q122 0 207.5 80t85.5 188q0 117 -79 190q-80 77 -214 77q-131 0 -210.5 -78t-79.5 -187.5zM199 1098q0 -102 72.5 -175t177.5 -73q111 0 182.5 73t71.5 176.5t-77 171.5q-80 80 -179 80 q-102 0 -177 -80q-71 -65 -71 -173z" />
<glyph unicode="9" d="M0 1087q0 193 117 301q117 114 332 114q219 0 339 -114q117 -108 117 -301q0 -452 -231 -726q-114 -142 -281 -230l-74 -37q-3 0 -52 -29q-85 -57 -142 -56q-11 0 -23 5q-11 3 -18 18.5t-7 27.5q0 31 20 62q17 23 51 37q356 188 466 396q28 57 35 82v6q0 20 -16 25.5 t-50 5.5h-14q-46 -3 -120 -3q-449 1 -449 416zM159 1084q0 -119 84 -190.5t206 -71.5q125 0 208 71q85 71 85 190.5t-74 187.5q-77 68 -219 69q-208 0 -270 -151q-20 -48 -20 -105z" />
<glyph unicode=":" d="M273 179q0 74 52.5 128t126.5 54t128 -54t54 -128t-54 -126.5t-128 -52.5t-126.5 52.5t-52.5 126.5zM273 814q0 74 52.5 126.5t126.5 52.5t128 -53t54 -126q0 -71 -57 -128q-43 -51 -125 -52q-114 0 -162 108q-17 32 -17 72z" />
<glyph unicode=";" d="M265 202q0 71 56 119q48 40 131 40q74 0 128 -54t54 -128q0 -128 -119 -321q-117 -196 -188 -196q-31 0 -45 36v20q0 34 37 66q80 71 125 165q11 28 17 60q-74 0 -134 62q-62 60 -62 131zM273 814q0 74 52.5 126.5t126.5 52.5t128 -53t54 -126q0 -71 -57 -128 q-43 -51 -125 -52q-114 0 -162 108q-17 32 -17 72z" />
<glyph unicode="&#x3c;" d="M0 758q0 44 68 107l663 563q31 31 68 31q11 0 23 -3q37 -6 37 -42q0 -46 -43 -86l-554 -478q-57 -40 -57 -85t60 -97l551 -469q43 -43 43 -91q0 -34 -37 -40q-11 -3 -23 -3q-37 0 -68 32l-660 560q-71 57 -71 101z" />
<glyph unicode="=" d="M26 240.5q0 38.5 17 55.5q17 26 99 25h620q108 0 111 -51q3 -14 3 -28q0 -43 -14 -54q-23 -28 -100 -29h-620q-82 0 -99 29q-17 14 -17 52.5zM26 803.5q0 38.5 17 58.5q17 23 99 23h620q108 0 111 -49q3 -17 3 -34q0 -40 -14 -57q-23 -23 -100 -23h-620q-82 0 -99 23 q-17 20 -17 58.5z" />
<glyph unicode="&#x3e;" d="M14 1408q0 20 12 34q17 17 42 17q31 0 77 -31l657 -563q68 -54 68 -106q0 -48 -68 -102l-657 -560q-43 -31 -77 -32q-9 0 -17 3q-34 6 -34 40q0 60 40 91l555 469q57 51 56 97q0 37 -54 85l-557 478q-23 17 -37 54q-6 12 -6 26z" />
<glyph unicode="?" d="M0 1178v62q0 60 97 142q68 60 210 103q23 6 46 5q34 11 94 12q48 0 88 -9q85 0 224 -82l29 -23q71 -54 88 -108l14 -37q9 -37 9 -65v-40q0 -6 -17 -103l-14 -28q-9 -17 -12 -29l-34 -48q-23 -23 -34 -43l-37 -31l-51 -37q-9 -6 -12 -11q-46 -23 -71 -63q-31 -31 -51 -71 l-20 -31q-17 -26 -45 -108q-3 -11 -3 -20q0 -28 -23 -60q-7 -6 -9 -11q-20 -9 -45 -9q-23 0 -43 34q-17 28 -17 57v43q17 122 94 227q11 17 29 29q6 20 25 31q17 17 34 26l40 25l57 52q51 51 71 145q3 14 3 31q0 125 -137 176q-60 23 -153 23q-37 0 -71 -6q-46 0 -125 -62 q-28 -23 -40 -54l-14 -23q-9 -9 -15 -20q-17 -26 -42 -43l-17 -14q-11 -6 -34 -6t-43 26q-23 26 -23 46zM338 105q0 71 63 100q20 9 40 8q71 0 99 -65q6 -20 6 -43q0 -71 -62 -99q-20 -6 -43 -6q-68 0 -94 65q-9 17 -9 40z" />
<glyph unicode="@" d="M-40 373v5q0 216 68 359q74 151 219 230q151 85 293 91h37q225 0 356 -111q97 -85 97 -236v-498q0 -26 22 -71q17 -40 17.5 -71t-48.5 -51q-26 -6 -44 -6t-38 6q-71 31 -97 31q-23 0 -31.5 -5.5t-17 -10t-22.5 -9.5q-6 -6 -71 -20q-37 -6 -66 -6h-20q-54 0 -91 6 q-94 17 -176 116q-46 54 -45 171q0 236 201 284q94 20 131 20h134q82 0 82 119.5t-133 156.5q-57 20 -134 20q-31 0 -60 -3q-111 -9 -193 -59q-97 -65 -134 -137q-68 -122 -68 -276v-14q3 -165 37 -287q17 -71 91 -177q80 -105 171 -105q128 0 170 -28q20 -11 20 -32 q0 -31 -23 -51q-40 -37 -91 -51q-20 -9 -93 -9q-65 0 -111 17q-108 43 -191 145q-74 100 -105 222q-43 166 -43 325zM464 298.5q0 -79.5 57 -110.5q51 -34 119 -34h9q145 3 190 93q11 26 11 52q0 80 -54 113q-57 37 -113 37h-23q-74 -6 -134 -37q-62 -34 -62 -113.5z" />
<glyph unicode="A" d="M0 94v23q3 28 6 42l321 1169q28 117 128 160q31 14 66 14q151 0 204 -194l285 -1166q9 -28 8 -54q0 -85 -82 -85q-60 0 -68 25q-6 17 -12 43l-65 231q-31 100 -83 122q-23 6 -48 6h-330q-97 0 -117 -100l-45 -202q-20 -88 -71 -119q-17 -6 -32 -6h-14q-51 0 -51 91z M307 649q0 -37 40 -46q20 -3 51 -3h168q48 0 91 37q34 31 34 63q0 9 -3 17l-119 529q-9 34 -51 62q-28 20 -46 20q-11 0 -23 -11l-133 -620q-9 -28 -9 -48z" />
<glyph unicode="B" d="M0 122v1260q0 119 122 120h418q125 0 247.5 -122.5t122.5 -244.5q0 -205 -116 -339q137 -125 156 -275q9 -54 9 -120q0 -85 -60 -202q-54 -102 -159 -159q-65 -40 -148 -40h-470q-122 0 -122 122zM159 242q0 -63 15 -71q9 -11 68 -12h310q100 0 168 91q57 77 57 171 q0 196 -103 247q-54 26 -122 26h-310q-60 0 -68 -8q-14 -11 -15 -72v-372zM159 936q0 -63 10 -71.5t73 -8.5h310q82 0 136 88q46 68 46 154q0 105 -91 188q-60 54 -145 54h-256q-63 0 -73 -10t-10 -70v-324z" />
<glyph unicode="C" d="M0 296v893q0 148 142 250q82 63 162 63h288q85 0 185 -48q54 -28 105 -80q34 -43 57 -103q9 -28 8 -54q0 -97 -48 -111q-11 -3 -31 -2q-46 0 -77 48q-14 20 -26 43q-6 20 -51 76q-48 68 -122 69h-271q-60 0 -113 -60q-48 -63 -49 -128v-802q0 -63 54 -125q60 -65 123 -66 h256q65 0 96 29q37 34 52 68q37 94 93 94h6q71 0 71 -80q0 -20 -3 -45q-20 -105 -105 -168q-82 -57 -210 -57h-299q-119 0 -236 142q-57 74 -57 154z" />
<glyph unicode="D" d="M0 159v1181q0 125 100 150q28 11 59 12h171q290 0 449.5 -116.5t210.5 -313.5q40 -137 40 -295q0 -546 -373 -712q-139 -65 -336 -65h-162q-57 0 -108 51t-51 108zM159 242q0 -51 54 -74q11 -9 29 -9q319 0 458 143q145 142 150 466q0 250 -79 375q-57 91 -145 134 q-137 63 -384 63q-51 0 -74 -49q-9 -14 -9 -31v-1018z" />
<glyph unicode="E" d="M0 122v1260q0 119 122 120h660q114 0 117 -48q6 -17 6 -35q0 -40 -18 -57q-23 -23 -105 -22h-540q-63 0 -73 -10t-10 -70v-324q0 -60 12 -68q9 -11 71 -12h193q111 0 117 -54v-28q0 -40 -12 -54q-26 -26 -105 -26h-193q-60 0 -71.5 -11.5t-11.5 -68.5v-372q0 -60 12 -68 q9 -14 71 -15h540q114 0 117 -51q6 -11 6 -28q0 -40 -18 -54q-23 -26 -105 -26h-660q-122 0 -122 122z" />
<glyph unicode="F" d="M0 122v1260q0 119 122 120h660q114 0 117 -48q6 -17 6 -35q0 -40 -18 -57q-23 -23 -105 -22h-540q-63 0 -73 -10t-10 -70v-324q0 -63 10 -71.5t73 -8.5h193q111 0 117 -54v-28q0 -40 -12 -54q-26 -26 -105 -26h-193q-63 0 -73 -10t-10 -70v-492q0 -117 -51 -122h-28 q-40 0 -54 14q-26 26 -26 108z" />
<glyph unicode="G" d="M0 327v834q0 128 102 238q63 68 145 91q26 11 49 12h256q230 0 321 -165q31 -51 32 -117q0 -88 -32 -114q-11 -11 -31 -14h-6q-37 0 -65 26q-40 34 -68 128q-14 54 -69 80q-31 14 -82 14h-188q-205 0 -205 -242v-737q0 -68 71 -136q71 -65 145 -66h128q91 0 165 60 q74 63 74 148v71q0 46 -42 63q-14 9 -37 8q-63 6 -77 17q-34 17 -34 60q0 65 99 65h145q71 0 94 -34q14 -23 15 -65v-430q0 -82 -57 -116q-11 -6 -26 -6q-28 0 -57 23q-23 20 -23 57q-43 -51 -139 -74q-28 -6 -51 -6h-162q-77 0 -188 57q-100 60 -159 148q-43 65 -43 122z " />
<glyph unicode="H" d="M0 122v1260q0 111 51 117q14 3 29 3q43 0 54 -17q26 -23 25 -103v-446q0 -63 10 -71.5t73 -8.5h455q48 0 74 57q6 11 6 23v446q0 111 54 117q14 3 28 3q40 0 54 -17q26 -23 26 -103v-1260q0 -117 -52 -122h-28q-40 0 -57 14q-26 28 -25 108v492q0 48 -57 74q-11 6 -23 6 h-455q-26 0 -54 -28q-28 -26 -29 -52v-492q0 -117 -51 -122h-28q-40 0 -54 14q-26 26 -26 108z" />
<glyph unicode="I" d="M159 51v29q0 43 15 54q26 26 105 25q63 0 85 54q6 11 6 29v1018q0 51 -54 74q-17 6 -37 6q-111 0 -120 48v31q0 43 15 60q26 23 105 23h341q114 0 120 -48v-35q0 -40 -15 -57q-26 -23 -105 -22q-60 0 -82 -49q-9 -14 -9 -31v-1018q0 -51 57 -74q14 -9 34 -9 q114 0 120 -51v-28q0 -40 -15 -54q-26 -26 -105 -26h-341q-111 0 -120 51z" />
<glyph unicode="J" d="M0 282q0 80 46 105q11 9 31 8q57 0 79 -71q23 -63 37 -82q63 -82 154 -83h171q100 0 168 74q57 65 56 160v867q0 51 -48 74q-17 6 -31 6h-216q-111 0 -120 48v33v33q0 48 120 48h335q122 0 123 -120v-1032q0 -142 -109 -248q-102 -102 -244 -102h-125q-154 0 -288 80 q-139 85 -139 202z" />
<glyph unicode="K" d="M0 122v1260q0 111 51 117q14 3 29 3q43 0 54 -17q26 -23 25 -103v-637q0 -20 10 -32.5t24 -12.5q34 0 103 91l446 628q57 82 100 83q82 0 82 -66q0 -43 -34 -96l-335 -464q-63 -85 -63 -142q0 -26 15.5 -51.5t38.5 -59.5l296 -435q54 -74 54 -131t-60 -57q-88 0 -142 91 l-247 384q-34 65 -83 65h-17q-40 -11 -94 -56q-94 -74 -94 -242v-120q0 -117 -51 -122h-28q-40 0 -54 14q-26 26 -26 108z" />
<glyph unicode="L" d="M0 159v1223q0 111 51 117q14 3 30 3h27q51 0 51 -120v-1140q0 -63 10 -73t73 -10h540q114 0 117 -51q6 -11 6 -28q0 -40 -18 -54q-23 -26 -105 -26h-623q-131 0 -153 82q-6 34 -6 77z" />
<glyph unicode="M" d="M0 122v1260q0 111 51 117q14 3 29 3q54 0 99 -83l319 -677l298 638q43 85 86 110q14 11 37 12q43 0 59 -17q20 -23 20 -103v-1260q0 -117 -48 -122h-31q-43 0 -57 14q-23 26 -23 108v783q0 54 -37 65h-8q-26 0 -52 -54l-170 -376q-26 -54 -71 -54q-48 0 -74 54l-171 376 q-26 54 -51 54h-12q-34 -11 -34 -65v-783q0 -117 -51 -122h-28q-40 0 -54 14q-26 26 -26 108z" />
<glyph unicode="N" d="M0 148v1234q0 111 51 117q14 3 29 3q60 0 108 -48q14 -17 24 -34.5t10 -20.5l529 -935q37 -51 65 -52v942q0 91 46 105q11 3 25 3q34 0 49 -17q23 -26 23 -91v-1235q0 -114 -52 -119h-31q-77 0 -117 65q-14 17 -22 37l-532 950l-26 37q-11 14 -37 15v-956 q0 -100 -45 -102q-14 -3 -26 -3q-37 0 -48 11q-23 23 -23 94z" />
<glyph unicode="O" d="M0 475v549q0 475 449 475h23q313 0 401 -265q31 -91 32 -210v-549q0 -353 -262 -444q-74 -28 -174 -28h-20q-449 0 -449 472zM159 466q0 -151 74 -229t216.5 -78t217.5 78.5t75 228.5v569q0 154 -75 229.5t-218 75.5q-290 -6 -290 -305v-569z" />
<glyph unicode="P" d="M-3 1377q0 60 31.5 92.5t90.5 32.5h433q185 0 284 -128q80 -105 80 -268q0 -296 -171 -398q-74 -43 -185 -42l-318 2q-60 0 -68 -8q-14 -11 -15 -71v-467q0 -117 -51 -122h-28q-40 0 -54 14q-26 26 -26 108zM159 910q0 -63 15 -71q9 -9 68 -8h256q137 0 196 79 q48 60 48 171q0 185 -116 236q-54 23 -128 23h-256q-60 0 -68 -9q-14 -11 -15 -71v-350z" />
<glyph unicode="Q" d="M0 475v549q0 475 449 475h23q313 0 401 -265q31 -91 32 -210v-549q0 -222 -111 -350q-11 -9 -12 -25q0 -9 3 -20l57 -97q34 -57 34 -91q0 -23 -14 -34q-46 -31 -74 -32h-11q-31 6 -74 77l-57 100q-11 17 -32 17h-11q-57 -17 -154 -17q-449 0 -449 472zM159 466 q0 -151 74 -229t216 -78h35q9 -3 11 -3q28 0 34 18v5q0 9 -3 14l-51 103q-31 54 -31 91q0 23 20 37q9 11 48 28q9 3 14 3q40 0 88 -80l54 -96q9 -9 17.5 -9t14.5 9q43 77 42 187v569q0 154 -75 229.5t-218 75.5q-290 -6 -290 -305v-569z" />
<glyph unicode="R" d="M-3 1377q0 60 31.5 92.5t90.5 32.5h433q185 0 284 -128q80 -105 80 -268q0 -225 -100 -341q-43 -46 -108 -74q-14 -6 -14 -28q0 -65 108 -339l68 -150q14 -28 17 -40q9 -60 9 -80v-3q-6 -51 -65 -51q-57 0 -134 125q-48 63 -85 242q-51 233 -114 282q-23 20 -54 19h-202 q-60 0 -68 -8q-14 -11 -15 -71v-467q0 -117 -51 -122h-28q-40 0 -54 14q-26 26 -26 108zM159 910q0 -63 15 -71q9 -9 68 -8h256q137 0 196 79q48 60 48 171q0 185 -116 236q-54 23 -128 23h-256q-60 0 -68 -9q-14 -11 -15 -71v-350z" />
<glyph unicode="S" d="M-6 253q0 37 20 46q34 17 57 17q9 0 20 -3q37 -14 83 -80q57 -65 173 -74h97q216 0 276 137q23 48 22 114q0 114 -74 202q-85 97 -224 96q-213 0 -327 111q-117 111 -117 299q0 265 250 355q77 28 177 29q225 0 318 -43q85 -40 123 -91q20 -26 19 -54q0 -14 -5 -31 q-9 -20 -23 -31q-20 -20 -48 -20q-48 0 -125 51q-108 57 -265 57q-108 0 -188 -63q-74 -63 -74 -148q0 -111 80 -182q82 -80 227 -79q208 0 350 -180q91 -105 91 -270q0 -196 -122 -304q-125 -114 -358 -114q-162 0 -276 48q-74 31 -105 80q-40 40 -49 102q-3 14 -3 23z" />
<glyph unicode="T" d="M0 1388v31q0 43 14 60q26 23 105 23h663q114 0 117 -48q6 -17 6 -35q0 -40 -18 -57q-23 -23 -105 -22h-156q-23 0 -54 -29q-26 -20 -26 -51v-1138q0 -117 -51 -122h-29q-43 0 -54 14q-26 26 -25 108v1138q0 40 -51 71q-14 9 -32 9h-185q-113 0 -119 48z" />
<glyph unicode="U" d="M0 395v987q0 111 51 117q14 3 29 3q43 0 54 -17q26 -23 25 -103v-918q0 -137 94 -225q82 -80 213 -80q193 0 254 148q23 48 22 111v964q0 111 49 117q17 3 31 3q40 0 51 -17q31 -26 32 -103v-1035q0 -134 -134 -245q-122 -102 -305 -102q-77 0 -170 28q-74 23 -148 80 q-102 80 -134 199q-14 42 -14 88z" />
<glyph unicode="V" d="M0 1414q0 37 14 59q9 20 43 20q51 0 71 -25q26 -28 40 -88l296 -1039l332 1078q26 74 86 74q48 0 48 -74q0 -40 -17 -93q-6 -14 -8 -32l-328 -1186q-31 -108 -122 -108q-94 0 -131 105l-17 54l-267 1061l-26 100q-14 57 -14 94z" />
<glyph unicode="W" d="M-23 1380v19q0 37 17 66q20 40 51.5 40t57 -31.5t31.5 -85.5l79 -873l174 574q17 71 79 72q26 0 49 -20t31 -52l171 -546l105 822q14 85 60 120q14 14 34 14q91 0 91 -142q0 -68 -11 -105l-180 -1130q-20 -122 -79 -122q-46 0 -66 68l-14 54l-134 521q-11 57 -54 57 q-17 0 -32.5 -14.5t-21.5 -42.5l-159 -569q-23 -74 -65 -74q-68 0 -83 122z" />
<glyph unicode="X" d="M-3 71q0 43 29 108l312 538q11 23 11.5 44t-11.5 35l-290 555q-20 37 -20 74q0 26 12 48q17 31 51 32h6q31 -3 68 -40q14 -14 28 -40l182 -358q43 -77 83 -77t85 77l174 321q43 74 102 85h14q28 0 40 -28q3 -11 3 -26q0 -31 -28 -85l-279 -515q-9 -20 -9 -42q0 -26 9 -37 l290 -598q23 -43 23 -74q0 -26 -14 -48q-20 -26 -57 -26q-51 0 -94 74l-225 427q-26 51 -58.5 51t-63.5 -57l-228 -401q-43 -74 -91 -74q-17 0 -31 9q-23 11 -23 48z" />
<glyph unicode="Y" d="M20 1411q0 26 11 45q17 28 49 29q37 0 68 -31q20 -17 31 -43l211 -418q57 -117 94 -117t93 120l188 392q26 54 57 71q17 9 28 9q26 0 49 -23q20 -17 20 -46q0 -11 -3 -22q-3 -23 -17 -49l-205 -429l-97 -205q-51 -119 -51 -193v-382q0 -114 -51 -119h-29q-43 0 -54 14 q-26 26 -25 108v376q0 128 -91 304l-46 97l-210 432q-20 46 -20 80z" />
<glyph unicode="Z" d="M0 1419q0 57 68 74q23 9 51 9h663q85 0 111 -48q11 -17 12 -35q0 -46 -32 -102q-6 -14 -11 -31l-287 -504l-330 -563q-6 -11 -6 -20q0 -17 11 -28q14 -11 43 -12h489q114 0 117 -51q6 -11 6 -28q0 -40 -18 -54q-28 -26 -105 -26h-660q-88 0 -116 51q-6 14 -6 29 q0 65 43 136l284 501l330 566q3 9 3 20q0 14 -17 28q-9 9 -40 9h-484q-85 0 -113 48q-6 17 -6 31z" />
<glyph unicode="[" d="M176 -105v1689q0 122 120 123h304q117 0 120 -40q3 -11 2 -29q0 -34 -14 -51q-23 -23 -108 -23l-182 -8q-51 0 -74 -51q-6 -14 -6 -26v-1482q0 -48 49 -71q14 -6 31 -6l182 -11q117 0 120 -51q3 -11 2 -26q0 -34 -14 -45q-20 -14 -108 -15h-304q-120 1 -120 123z" />
<glyph unicode="\" d="M0 1621q0 54 71 69h11q46 0 86 -80l828 -1616q20 -48 19 -82q0 -28 -11 -43q-14 -14 -54 -28h-11q-43 0 -83 79l-830 1616q-26 48 -26 85z" />
<glyph unicode="]" d="M159 -168q0 40 20 51q37 26 100 26l187 11q28 0 55 23q26 17 25 54v1482q0 48 -51 71q-11 6 -29 6l-187 8q-102 0 -114 49q-6 14 -6 25q0 40 15 52q26 17 105 17h307q122 0 122 -123v-1689q0 -122 -122 -123h-307q-111 0 -120 35v25z" />
<glyph unicode="^" d="M40 961q0 71 60 154l290 390l45 57q74 91 125 91q74 0 131 -89l361 -486q51 -57 52 -117q0 -31 -17 -68q-26 -54 -66 -54q-31 0 -77 43l-51 62l-324 433l-364 -470q-48 -63 -103 -62q-9 0 -20 3q-42 11 -42 113z" />
<glyph unicode="_" d="M-46 46v36q0 60 26 72q17 11 46 11h495h-3h-9h583q139 0 140 -83q0 -80 -140 -79h-998q-134 0 -140 43z" />
<glyph unicode="`" d="M191 1573q0 43 74 74q3 3 5 3q26 0 105 -66l450 -352q40 -54 40 -94q0 -17 -6 -29q-11 -17 -48 -37q0 -3 -9 -2q-20 0 -102 65l-453 353q-56 45 -56 85z" />
<glyph unicode="a" d="M0 293q0 236 202 284q94 20 216 20h202q82 0 83 120q0 108 -134 156q-46 17 -103 17q-154 -9 -221 -99q-23 -26 -43 -57q-14 -31 -57 -40q-14 -6 -26 -6q-20 0 -39 9q-46 23 -46 117q0 105 125 176q122 68 293 68h32q185 0 301 -111q97 -97 97 -236v-498q0 -26 23 -71 q17 -40 17 -71t-49 -51q-26 -6 -44 -6t-38 6q-71 31 -97 31q-23 0 -31 -5q-6 -6 -16 -10l-24 -10q-6 -6 -71 -20q-37 -6 -134 -6h-57q-54 0 -139 17q-114 17 -176 105q-46 66 -46 171zM159 298.5q0 -79.5 60 -110.5q54 -34 174 -34h42q208 0 256 93q11 26 12 52 q0 80 -54 113q-60 37 -205 37q-165 -6 -219 -37q-66 -34 -66 -113.5z" />
<glyph unicode="b" d="M0 122v1260q0 111 51 117q14 3 29 3q43 0 54 -17q26 -23 25 -103v-335q0 -17 15 -17q6 0 14 3q57 28 264 28q225 0 336 -83q119 -94 145 -270q9 -68 9 -153q-17 -438 -313 -529q-82 -26 -165 -26h-100q-108 0 -205 43q-28 -43 -79 -43q-40 0 -54 14q-26 26 -26 108z M159 324q0 -131 168 -165q48 -9 103 -8q97 0 182 45q114 65 147 248q9 54 9 142v17q0 128 -85 213q-100 100 -293 100q-88 0 -151 -40q-80 -40 -80 -136v-416z" />
<glyph unicode="c" d="M0 338v288q0 347 265 409q82 23 196 26q225 0 335 -71q119 -77 154 -199q9 -23 14 -40q3 -11 3 -29q0 -26 -17 -48q-28 -40 -82 -40q-57 0 -94 91q-40 105 -117 143q-65 37 -165 37h-31q-302 -17 -302 -262v-253q0 -185 208 -222q97 -20 151 -20h34q68 9 148 45 q119 51 156 52h6q34 -6 43 -63q0 -91 -146 -142q-37 -11 -145 -31q-60 -9 -150 -9q-259 0 -382 117q-82 76 -82 221z" />
<glyph unicode="d" d="M0 555q0 296 159 423q111 82 330 83q228 0 268 -28q6 -3 11 -3q14 0 14 17v335q0 111 49 117q14 3 31 3q43 0 57 -17q23 -23 23 -103v-1260q0 -108 -49 -119q-17 -3 -31 -3q-46 0 -80 43l-99 -34q-46 -9 -106 -9h-99l-91 6q-279 20 -347 250q-40 120 -40 299zM174 549 q0 -57 5 -131q37 -267 333 -267q185 0 247 96q23 31 23 80v415q0 91 -74 140q-60 34 -156 34q-296 0 -359 -182q-20 -65 -19 -145v-40z" />
<glyph unicode="e" d="M0 321v296q0 242 117 344q111 100 335 100q205 0 359 -119q60 -46 102 -126q28 -65 29 -125v-23q-6 -91 -49 -119q-34 -26 -153 -26h-507q-74 0 -74 -119q0 -108 97 -185q91 -68 230 -68q100 0 208 68q28 20 51 46q51 63 111 73h6q14 0 28 -11q23 -11 23 -45 q0 -14 -6 -37q-14 -48 -45 -80l-71 -63q-117 -102 -325 -102q-233 0 -369 117q-97 76 -97 204zM193 762q0 -74 37 -85q17 -3 43 -3h353q114 0 114 51q0 60 -52 111q-80 74 -240.5 74t-231.5 -88q-23 -26 -23 -60z" />
<glyph unicode="f" d="M51 967q0 54 29 68q23 11 91 12q34 0 42 71q3 14 3 20q37 205 159 290q117 74 319 74q137 0 239 -51q65 -34 77 -94q3 -17 3 -31q0 -34 -17 -60q-17 -31 -57 -32q-46 9 -71 35q-74 74 -194 74q-80 0 -159 -43q-91 -57 -91 -137q0 -85 25 -108q6 -11 23 -11h12h130h26 q80 0 91 -48q3 -14 3 -32q0 -40 -20 -57q-23 -23 -102 -22l-163 -3q-63 0 -62 -66l-6 -694q0 -117 -45 -122h-33h-33q-48 0 -48 122v694q0 71 -51 71q-71 0 -103 26q-17 17 -17 54z" />
<glyph unicode="g" d="M0 393v284q0 199 97 287q91 80 250 91q97 6 205 6h222q74 0 108 -14q54 -28 54 -105v-942q0 -293 -111 -390q-91 -82 -273 -82h-256q-71 0 -120 42q-26 26 -25 43q0 14 17 26q26 23 85 23h262q225 0 225 264q0 74 -66 74h-219q-165 0 -236 20q-219 63 -219 373zM156 674 l3 -293q0 -131 86 -188q57 -43 173 -42h205q65 0 93.5 31t28.5 97l12 506q0 119 -94 120h-194q-148 0 -219 -43q-94 -51 -94 -188z" />
<glyph unicode="h" d="M0 1382q0 111 51 117q14 3 29 3q43 0 54 -17q26 -23 25 -103v-287q0 -63 40 -71h14q28 0 74 17q65 20 154 20h48q344 0 427 -199q40 -94 40 -268v-472q0 -117 -57 -122h-26q-40 0 -57 14q-23 26 -22 108l5 450q0 245 -182 296q-65 20 -151 19q-137 0 -219 -65 q-88 -65 -88 -202v-498q0 -117 -51 -122h-28q-40 0 -54 14q-26 26 -26 108v1260z" />
<glyph unicode="i" d="M159 51v29q0 46 15 59q28 20 105 20h111q57 0 68 11.5t11 71.5v560q0 43 -51 71q-17 11 -28 12q-142 0 -151 48q-6 14 -6 31q0 48 69 71q23 9 54 9h153q114 0 120 -80v-42v-680q0 -60 11 -68q9 -14 71 -15h66q117 0 122 -51v-28q0 -46 -12 -57q-28 -23 -110 -23h-498 q-111 0 -120 51zM438 1342.5q0 39.5 26 71.5q26 26 71 25q60 0 88 -57q6 -20 6 -39q0 -60 -57 -89q-20 -9 -37 -8q-43 0 -71 31q-26 26 -26 65.5z" />
<glyph unicode="j" d="M0 -28q0 57 31 76q14 9 29 9q57 0 108 -134q40 -111 114 -128q26 -9 59 -8q137 0 180 71q43 65 42 261v683q0 43 -54 71q-14 11 -25 12q-148 0 -157 48v31q0 48 68 71q23 9 52 9h153q108 0 120 -80q3 -23 2 -42v-763q0 -299 -79 -401q-48 -60 -117 -79q-77 -26 -176 -26 q-162 0 -248 77q-102 97 -102 205v37zM526 1343q0 37 29 71q28 26 68 25q68 0 91 -57q6 -20 6 -39q0 -63 -57 -89q-17 -9 -40 -8q-60 0 -88 60q-9 20 -9 37z" />
<glyph unicode="k" d="M0 122v1260q0 111 51 117q14 3 29 3q43 0 54 -17q26 -23 25 -103v-847q0 -31 9 -37q6 -3 8 -3q20 0 63 34l57 54l463 413q28 26 52 25q65 0 82 -40q3 -14 3 -25q0 -51 -37 -91l-284 -248q-65 -63 -66 -114q0 -37 37 -73l276 -239q71 -60 77 -126v-8q0 -57 -63 -57 q-85 0 -142 54l-51 48l-233 219q-28 28 -66 29q-28 0 -65 -14q-119 -60 -120 -160v-54q0 -117 -51 -122h-28q-40 0 -54 14q-26 26 -26 108z" />
<glyph unicode="l" d="M46 80q0 43 19 59q26 20 103 20h151q57 0 68 14.5t11 68.5v1018q0 46 -51 71q-11 9 -28 9q-145 0 -151 48v31q0 82 119 83h154q77 0 105 -46q14 -26 14 -74v-1140q0 -54 11.5 -68.5t68.5 -14.5h117q111 0 116 -51v-28q0 -46 -11 -57q-28 -23 -105 -23h-589 q-111 0 -120 51q-2 15 -2 29z" />
<glyph unicode="m" d="M-20 122v856q0 54 40 77q14 6 34 6q51 0 77 -46q9 -9 8 -19q40 65 177 65q63 0 128 -43l45 -28q14 -9 32 -9h8q20 0 43 12l45 28q71 40 142 40q176 -9 237 -191q23 -60 22 -139v-609q0 -117 -54 -122h-25q-43 0 -57 14q-23 26 -23 108v566q0 85 -43 148q-40 54 -96 54 q-51 -6 -94 -59q-37 -54 -37 -131v-578q0 -117 -54 -122h-26q-43 0 -60 14q-23 26 -22 108v578q0 63 -40 131t-97 68q-63 0 -102 -54q-48 -57 -49 -145v-578q0 -117 -48 -122h-34q-40 0 -54 14q-23 28 -23 108z" />
<glyph unicode="n" d="M0 122v820q0 114 51 119h29q68 0 79 -48q0 -6 15 -6q20 0 71 14q128 40 264 40q182 0 307 -88q131 -88 131 -253v-598q0 -117 -48 -122h-31q-37 0 -52 14q-28 28 -28 108v518q0 179 -185 242q-60 17 -134 17q-222 0 -290 -179q-20 -48 -20 -100v-498q0 -117 -51 -122h-28 q-40 0 -54 14q-26 26 -26 108z" />
<glyph unicode="o" d="M0 475v114q0 282 100 381q91 91 295 91h54q253 0 353 -94q102 -97 103 -378v-114q0 -225 -55 -319q-40 -74 -105 -105q-97 -48 -244 -48h-52q-205 0 -295 43q-71 34 -103 99q-51 100 -51 330zM159 466q0 -171 60 -236q63 -71 230 -71q171 0 232 68.5t61 238.5v131 q0 165 -54 228q-63 74 -216 74h-23q-174 0 -236 -77q-54 -60 -54 -225v-131z" />
<glyph unicode="p" d="M0 -225v1167q0 114 51 119h29q48 0 68 -26q17 -20 23 -20v-2q3 0 105 28q71 20 225 20q111 0 219 -46q117 -43 179 -159q43 -85 43 -205v-261q0 -174 -131 -285q-134 -105 -333 -105h-77q-111 0 -188 23q-6 3 -8 3q-11 0 -31 -26q-14 -20 -15 -71v-154q0 -111 -51 -119 q-11 -3 -28 -3q-37 0 -54 17q-26 17 -26 105zM159 466q0 -171 60 -236q63 -71 230 -71q176 0 245 66q74 74 74 241v128q0 156 -67 230.5t-226 74.5h-26q-174 0 -236 -77q-54 -60 -54 -225v-131z" />
<glyph unicode="q" d="M0 390v261q0 213 151 327q111 82 290 83q145 0 299 -40l31 -8v2q6 0 11 6l14 14q20 26 66 26q43 0 57 -14q23 -26 23 -105v-1167q0 -88 -23 -105q-20 -17 -57 -17q-80 0 -80 122v154q0 68 -31 91q-6 6 -11 6q-3 0 -9 -3q-82 -23 -191 -23h-76q-202 0 -330 105 q-134 114 -134 285zM176 466q0 -250 171 -292q63 -14 145 -15q168 0 228 71q63 65 62 236v131q0 168 -51 225q-65 77 -239 77h-23q-236 0 -276 -168q-17 -60 -17 -137v-128z" />
<glyph unicode="r" d="M0 981q0 40 14 54q26 26 105 26q68 0 171 -20q17 -3 40 -3q11 0 134 23q54 9 182 9q102 0 179 -60q82 -63 82 -137v-54q3 -6 3 -11q0 -51 -28 -88q-14 -20 -49 -23q-51 0 -96 77q-48 85 -94 113q-48 28 -94 29q-125 0 -182 -85q-23 -34 -23 -80v-523q0 -40 23 -54 q28 -14 148 -15q114 0 122 -51v-28q0 -40 -14 -54q-26 -26 -108 -26h-396q-114 0 -119 51v29q0 43 14 54q26 26 105 25q63 0 63 69v605q0 40 -34 60q-14 6 -29 6q-85 0 -113 51q-6 14 -6 31z" />
<glyph unicode="s" d="M-9 282q0 40 23 48q31 17 54 17q9 0 14 -3q43 -14 89 -77q74 -85 176 -99q43 -9 97 -9h45q159 0 225 66q31 31 31 82q0 142 -173 162q-54 6 -128 6q-324 0 -413 171q-31 57 -31 131q0 162 128 227q114 60 358 66q233 0 325 -57q23 -17 54 -49q54 -48 54 -108 q0 -91 -63 -105q-11 -3 -20 -3q-37 0 -71 26q-23 17 -43 45q-65 91 -247 91q-304 0 -304 -133q0 -88 71 -120q51 -20 224 -20q319 0 402 -148q40 -65 39 -173q0 -176 -122 -248q-114 -68 -358 -68q-193 0 -319 91q-31 23 -51 51q-6 9 -14 17q-40 40 -49 106q-3 8 -3 17z" />
<glyph unicode="t" d="M0 944v37q0 40 14 54q26 26 105 26q26 0 37 37q3 11 3 20l-3 264q0 111 57 117q11 3 26 3q40 0 57 -17q23 -23 23 -103v-273q0 -26 12.5 -37t43.5 -11h245q111 0 120 -51q3 -14 2 -29q0 -40 -17 -57q-26 -26 -105 -25h-245q-31 0 -43.5 -11.5t-12.5 -42.5v-489 q0 -100 59 -151q46 -34 137 -46q14 -3 34 -3q91 0 173 57q40 20 89 32q60 0 76 -49q0 -46 -39 -88q-77 -74 -231 -102q-46 -6 -102 -6q-245 0 -327 188q-31 65 -32 168v489q0 31 -22 48q-6 6 -15 6q-113 -1 -119 45z" />
<glyph unicode="u" d="M0 492v450q0 114 51 119h29q43 0 54 -14q26 -26 25 -105v-493q0 -193 168 -261q60 -28 145 -29q128 0 188 49q80 68 80 207l2 527q0 114 49 119h31q40 0 51 -14q31 -28 32 -105l-6 -820q0 -117 -51 -122h-29q-26 0 -57 15.5t-59 15.5h-3q-17 0 -95.5 -15.5t-132.5 -15.5 q-347 0 -441 282q-31 91 -31 210z" />
<glyph unicode="v" d="M9 978q0 88 62.5 88.5t87.5 -68.5l327 -674l299 620q28 71 37 80q23 37 60 37q40 0 51 -46q3 -9 3 -22q0 -37 -23 -103q-3 -17 -6 -28l-321 -760q-40 -102 -129.5 -102t-129.5 108l-20 51l-256 632q-42 102 -42 187z" />
<glyph unicode="w" d="M-26 961q0 28 17 60q17 34 55 40q60 0 88 -117l99 -500l188 350q34 63 82 62q43 0 80 -62l174 -370l108 549q26 94 82 94q91 0 91 -143q0 -65 -14 -105l-176 -705q-26 -117 -80 -117q-37 0 -60 63l-20 54l-133 370q-17 46 -54 45.5t-57 -45.5l-154 -362q-11 -23 -17 -45 q-23 -74 -65 -74q-34 0 -54 31q-9 23 -26 88l-151 814q-3 11 -3 25z" />
<glyph unicode="x" d="M0 65q0 14 3 37q3 20 31 57l285 336q20 20 19.5 38.5t-19.5 41.5l-273 347q-23 28 -23 74q0 43 34 65q17 11 34 11q31 0 68 -51l214 -250q26 -26 44 -40t35 -14q40 0 88 54l197 207l59 60q26 20 54 20q14 0 32 -6q23 -23 23 -54q0 -20 -15 -48q-9 -14 -22 -28l-305 -345 q-17 -23 -17 -42q0 -14 17 -37l296 -364q28 -37 28 -74q0 -14 -5 -34q-14 -26 -71 -26q-46 0 -94 60l-228 276q-17 43 -55.5 42.5t-63.5 -51.5l-228 -247l-40 -34q-48 -37 -68 -37l-3 5q-31 3 -31 51z" />
<glyph unicode="y" d="M17 1004q0 28 14 48q17 28 51 29q60 0 97 -74l196 -418q51 -119 94 -120q34 0 94 120l177 395q34 74 82 77q9 3 11 3q26 0 43 -23t17 -48q0 -31 -20 -71l-330 -729l-131 -301q-82 -171 -145 -205q-77 -34 -142 -34q-26 0 -48 6q-20 3 -26 5q-9 6 -11 20q-6 9 -6 14 q0 26 31 57q17 23 60 40q94 46 168 159q54 88 60 137q3 17 3 37q0 88 -40 196q-37 88 -50 114t-21 51l-205 441q-23 40 -23 74z" />
<glyph unicode="z" d="M9 80v22q0 71 42 114l569 603q17 23 17 43q0 14 -20 31q-9 6 -34 6h-455q-74 0 -108 45q-11 14 -11 37q0 40 42 63q28 17 77 17h663q74 0 108 -40q14 -14 14 -40q0 -94 -43 -136l-588 -603q-26 -26 -26 -43q0 -20 26 -31q17 -9 39 -9h470q91 0 114 -37q9 -17 8 -42 q0 -74 -77 -80h-45h-660q-122 0 -122 80z" />
<glyph unicode="|" d="M444 17l3 1815q0 122 76 122q14 0 32 -6q54 -14 54 -113v-3l-9 -1815q-3 -94 -48 -114q-9 -6 -26 -5q-11 0 -31 2q-51 9 -51 117z" />
<glyph unicode="~" d="M43 748q0 28 14 68q40 88 156 131q65 26 140 26q43 0 88 -6l233 -108q48 -20 94 -20q20 0 40 6q37 6 77 54q60 74 113 74q34 0 66 -26q23 -17 23 -48q0 -48 -52 -122q-48 -63 -170 -103q-46 -11 -100 -11q-43 0 -91 5q-71 9 -219 97q-57 28 -105 29q-63 0 -108 -52 q-63 -71 -117 -71q-20 0 -34 12q-48 17 -48 65z" />
<glyph unicode="&#xa0;" />
<glyph unicode="&#xa1;" d="M324 131v11l57 817q23 111 80 111q46 0 71 -77q6 -20 6 -37l62 -808v-17q0 -80 -88 -122q-23 -9 -48 -9q-51 0 -100 40q-40 43 -40 91zM356 1394q0 43 28 74q28 26 74 25q74 0 100 -59q6 -20 5 -40q0 -71 -62 -100q-20 -6 -43 -5q-68 0 -94 62q-8 20 -8 43z" />
<glyph unicode="&#xa5;" d="M20 1411q0 26 11 45q17 28 49 29q37 0 68 -31q20 -17 31 -43l211 -418q57 -117 94 -117t93 120l188 392q26 54 57 71q17 9 28 9q26 0 49 -23q20 -17 20 -46q0 -11 -3 -22q-3 -23 -17 -49l-205 -429l-97 -205q-51 -119 -51 -193v-382q0 -114 -51 -119h-29q-43 0 -54 14 q-26 26 -25 108v376q0 128 -91 304l-46 97l-210 432q-20 46 -20 80zM46 279v40q0 57 25 71q17 9 46 8h372h-3h-11h313q137 0 136.5 -79.5t-136.5 -79.5h-606q-130 0 -136 40zM46 617v40q0 57 25 68q17 11 46 12h372h-3h-11h313q137 0 136 -80q0 -82 -136 -82h-606 q-130 -1 -136 42z" />
<glyph unicode="&#xad;" d="M77 455v40q0 57 25 71q17 9 46 9h373h-3h-9h310q139 0 139.5 -80t-139.5 -80h-603q-133 0 -139 40z" />
<glyph unicode="&#xb4;" d="M242 1138q0 40 34 94l455 352q80 65 105 66q3 0 6 -3q74 -31 74 -74q0 -40 -57 -85l-455 -353q-80 -65 -105 -65q-3 0 -3 2q-40 20 -49 37q-5 12 -5 29z" />
<glyph unicode="&#xbf;" d="M0 324v40q0 6 17 102l14 29q9 17 12 28l34 49q23 23 34 42l37 32l51 37q9 6 11 11q46 23 72 63q31 31 51 71l20 31q17 26 45 108q3 11 3 20q0 28 23 60q6 6 8 11q20 9 46 9q23 0 43 -34q17 -28 17 -57v-43q-17 -122 -94 -228q-11 -17 -29 -28q-6 -20 -25 -31 q-17 -17 -34 -26l-40 -26l-57 -51q-51 -51 -71 -145q-3 -14 -3 -31q0 -125 136 -176q60 -23 154 -23q37 0 71 6q46 0 125 62q28 23 40 54l14 23q9 9 15 20q17 26 42 42q11 9 17 15q11 6 34 5.5t43 -25.5q23 -26 23 -46v-62q0 -60 -97 -143q-68 -60 -210 -102q-23 -6 -46 -6 q-34 -11 -94 -11q-48 0 -88 9q-85 0 -225 82l-28 23q-71 54 -88 108l-14 37q-9 37 -9 65zM353 1397q0 71 62 99q20 6 43 6q68 0 94 -66q9 -17 8 -39q0 -71 -62 -100q-20 -9 -40 -8q-71 0 -100 65q-5 20 -5 43z" />
<glyph unicode="&#xc0;" d="M0 94v25q3 26 6 40l313 1084q51 171 193 171q105 0 171 -108q20 -37 34 -86l293 -1078q9 -28 8 -54q0 -85 -82 -85q-60 0 -68 25q-6 17 -13 45l-19 69l-45 160q-34 128 -131 128h-330q-97 0 -117 -100l-45 -202q-20 -88 -71 -119q-17 -6 -32 -6h-14q-51 0 -51 91z M242 1621q0 20 3 32q14 40 51 45q14 3 25 3q46 0 89 -26q46 -26 199 -185q43 -43 54 -73q9 -17 8 -37q0 -14 -8 -32q-9 -28 -57 -28q-31 6 -68 23q-63 34 -211 139q-68 48 -82 94q-3 25 -3 45zM307 649q0 -48 91 -49h168q46 0 91 43q34 28 34 57q0 11 -3 17l-128 444 q-9 26 -51 59q-31 20 -48 20q-14 0 -20 -8l-125 -535q-9 -28 -9 -48z" />
<glyph unicode="&#xc1;" d="M0 94v25q3 26 6 40l313 1084q51 171 193 171q105 0 171 -108q20 -37 34 -86l293 -1078q9 -28 8 -54q0 -85 -82 -85q-60 0 -68 25q-6 17 -13 45l-19 69l-45 160q-34 128 -131 128h-330q-97 0 -117 -100l-45 -202q-20 -88 -71 -119q-17 -6 -32 -6h-14q-51 0 -51 91z M307 649q0 -48 91 -49h168q46 0 91 43q34 28 34 57q0 11 -3 17l-128 444q-9 26 -51 59q-31 20 -48 20q-14 0 -20 -8l-125 -535q-9 -28 -9 -48zM350 1380q0 20 8 37q11 31 52 73q154 159 199 185q43 26 88 26q11 0 25 -3q37 -6 52 -45q3 -11 3 -31.5t-6 -45.5 q-11 -46 -77 -94q-148 -105 -213 -139q-34 -17 -69 -23q-48 0 -56 28q-6 18 -6 32z" />
<glyph unicode="&#xc2;" d="M0 94v25q3 26 6 40l313 1084q51 171 193 171q105 0 171 -108q20 -37 34 -86l293 -1078q9 -28 8 -54q0 -85 -82 -85q-60 0 -68 25q-6 17 -13 45l-19 69l-45 160q-34 128 -131 128h-330q-97 0 -117 -100l-45 -202q-20 -88 -71 -119q-17 -6 -32 -6h-14q-51 0 -51 91z M125 1439q0 46 49 94l199 196l34 35q60 54 102 54q60 0 105 -52l256 -258q40 -37 40 -72q0 -20 -14 -42q-20 -31 -51 -32q-26 0 -60 26l-43 40l-224 225l-259 -245q-40 -40 -83 -40q-9 0 -17 3q-34 5 -34 68zM307 649q0 -48 91 -49h168q46 0 91 43q34 28 34 57q0 11 -3 17 l-128 444q-9 26 -51 59q-31 20 -48 20q-14 0 -20 -8l-125 -535q-9 -28 -9 -48z" />
<glyph unicode="&#xc3;" d="M0 94v25q3 26 6 40l313 1084q51 171 193 171q105 0 171 -108q20 -37 34 -86l293 -1078q9 -28 8 -54q0 -85 -82 -85q-60 0 -68 25q-6 17 -13 45l-19 69l-45 160q-34 128 -131 128h-330q-97 0 -117 -100l-45 -202q-20 -88 -71 -119q-17 -6 -32 -6h-14q-51 0 -51 91z M114 1593q0 23 14 51q28 71 117 105q54 23 108 23q31 0 68 -6l176 -88q37 -14 71 -14q14 0 29 6q28 3 60 45q46 57 88 57q26 0 48 -20q20 -14 20 -40q0 -37 -43 -96q-37 -51 -128 -83q-37 -11 -76 -11q-34 0 -69 5q-54 6 -167 77q-43 23 -80 23q-48 0 -85 -40 q-43 -57 -86 -57q-14 0 -25 9q-40 14 -40 54zM307 649q0 -48 91 -49h168q46 0 91 43q34 28 34 57q0 11 -3 17l-128 444q-9 26 -51 59q-31 20 -48 20q-14 0 -20 -8l-125 -535q-9 -28 -9 -48z" />
<glyph unicode="&#xc4;" d="M0 94v25q3 26 6 40l313 1084q51 171 193 171q105 0 171 -108q20 -37 34 -86l293 -1078q9 -28 8 -54q0 -85 -82 -85q-60 0 -68 25q-6 17 -13 45l-19 69l-45 160q-34 128 -131 128h-330q-97 0 -117 -100l-45 -202q-20 -88 -71 -119q-17 -6 -32 -6h-14q-51 0 -51 91z M71 1599q0 43 35.5 78t81.5 35q74 0 105 -74q9 -17 9 -39q0 -46 -32 -86q-31 -31 -82 -31q-74 0 -108 68q-9 23 -9 49zM307 649q0 -48 91 -49h168q46 0 91 43q34 28 34 57q0 11 -3 17l-128 444q-9 26 -51 59q-31 20 -48 20q-14 0 -20 -8l-125 -535q-9 -28 -9 -48zM742 1599 q0 40 35 79q31 34 82 34q46 0 80 -35.5t34 -77.5q0 -48 -34 -86q-31 -31 -80 -31q-74 0 -108 68q-9 23 -9 49z" />
<glyph unicode="&#xc5;" d="M0 94v25q3 26 6 40l313 1084q3 17 2 28q0 34 -8 55l-23 62q-23 63 -23 159q0 154 151 202q51 14 122 15q128 0 194 -74q48 -57 48 -163q0 -88 -51 -165q-34 -51 -34 -96q0 -20 6 -46l307 -1078q9 -28 8 -51q0 -88 -82 -88q-60 0 -68 25q-6 17 -13 45l-19 69l-45 160 q-34 128 -131 128h-330q-97 0 -117 -100l-45 -202q-20 -88 -71 -119q-17 -6 -32 -6h-14q-51 0 -51 91zM307 651q0 -37 40 -48q20 -3 51 -3h168q46 0 91 43q34 28 34 57q0 11 -3 17l-128 444q-14 51 -51 73q-14 6 -25 6q-20 0 -35 -20l-133 -523q-9 -26 -9 -46zM404 1508 q0 -74 65 -100q23 -6 46 -6q68 0 99 63q9 20 9 43q0 40 -31 74q-31 28 -77 28q-74 0 -103 -63q-8 -19 -8 -39z" />
<glyph unicode="&#xc8;" d="M0 122v1260q0 119 122 120h660q114 0 117 -48q6 -17 6 -35q0 -40 -18 -57q-23 -23 -105 -22h-540q-63 0 -73 -10t-10 -70v-324q0 -60 12 -68q9 -11 71 -12h193q111 0 117 -54v-28q0 -40 -12 -54q-26 -26 -105 -26h-193q-60 0 -71.5 -11.5t-11.5 -68.5v-372q0 -60 12 -68 q9 -14 71 -15h540q114 0 117 -51q6 -11 6 -28q0 -40 -18 -54q-23 -26 -105 -26h-660q-122 0 -122 122zM228 1434q0 20 2 31q14 40 52 45q14 3 25 3q46 0 88 -25q46 -26 199 -185q43 -43 55 -74q9 -17 8 -37q0 -14 -8 -31q-9 -28 -57 -29q-31 6 -69 23q-63 34 -210 139 q-68 48 -83 94q-2 26 -2 46z" />
<glyph unicode="&#xc9;" d="M0 122v1260q0 119 122 120h660q114 0 117 -48q6 -17 6 -35q0 -40 -18 -57q-23 -23 -105 -22h-540q-63 0 -73 -10t-10 -70v-324q0 -60 12 -68q9 -11 71 -12h193q111 0 117 -54v-28q0 -40 -12 -54q-26 -26 -105 -26h-193q-60 0 -71.5 -11.5t-11.5 -68.5v-372q0 -60 12 -68 q9 -14 71 -15h540q114 0 117 -51q6 -11 6 -28q0 -40 -18 -54q-23 -26 -105 -26h-660q-122 0 -122 122zM415 1192q0 20 9 37q11 31 51 74q154 159 199 185q43 26 88 25q11 0 26 -3q37 -6 51 -45q3 -11 3 -31t-6 -46q-11 -46 -77 -94q-148 -105 -213 -139q-34 -17 -68 -23 q-48 0 -57 29q-6 17 -6 31z" />
<glyph unicode="&#xca;" d="M0 122v1260q0 119 122 120h660q114 0 117 -48q6 -17 6 -35q0 -40 -18 -57q-23 -23 -105 -22h-540q-63 0 -73 -10t-10 -70v-324q0 -60 12 -68q9 -11 71 -12h193q111 0 117 -54v-28q0 -40 -12 -54q-26 -26 -105 -26h-193q-60 0 -71.5 -11.5t-11.5 -68.5v-372q0 -60 12 -68 q9 -14 71 -15h540q114 0 117 -51q6 -11 6 -28q0 -40 -18 -54q-23 -26 -105 -26h-660q-122 0 -122 122zM68 1465q0 46 49 94l199 196l34 34q60 54 102 54q60 0 106 -51l256 -259q40 -37 39 -71q0 -20 -14 -43q-20 -31 -51 -31q-26 0 -60 26l-42 40l-225 224l-259 -244 q-40 -40 -83 -40q-9 0 -17 3q-34 5 -34 68z" />
<glyph unicode="&#xcb;" d="M0 122v1260q0 119 122 120h660q114 0 117 -48q6 -17 6 -35q0 -40 -18 -57q-23 -23 -105 -22h-540q-63 0 -73 -10t-10 -70v-324q0 -60 12 -68q9 -11 71 -12h193q111 0 117 -54v-28q0 -40 -12 -54q-26 -26 -105 -26h-193q-60 0 -71.5 -11.5t-11.5 -68.5v-372q0 -60 12 -68 q9 -14 71 -15h540q114 0 117 -51q6 -11 6 -28q0 -40 -18 -54q-23 -26 -105 -26h-660q-122 0 -122 122zM57 1692q0 46 35.5 81.5t81.5 35.5q48 0 82 -34q31 -34 31 -83q0 -80 -71 -105q-17 -9 -42 -8q-74 0 -109 68q-8 19 -8 45zM555 1692q0 74 68 109q23 9 48 8 q46 0 80 -35.5t34 -81t-34 -82.5q-31 -31 -80 -31q-82 0 -108 68q-8 19 -8 45z" />
<glyph unicode="&#xcc;" d="M125 1658q0 20 3 32q14 40 51 45q14 3 26 3q46 0 88 -26q46 -26 199 -185q43 -43 54 -73q9 -17 9 -37q0 -14 -9 -32q-9 -28 -57 -28q-31 6 -68 23q-63 34 -211 139q-68 48 -82 94q-3 25 -3 45zM159 51v29q0 43 15 54q26 26 105 25q63 0 85 54q6 11 6 29v927q0 51 -54 74 q-17 9 -37 9q-111 0 -120 48v31q0 43 15 57q26 23 105 23h341q114 0 120 -49v-31q0 -43 -15 -60q-26 -20 -105 -19q-60 0 -82 -49q-9 -17 -9 -34v-927q0 -51 57 -74q14 -9 34 -9q114 0 120 -51v-28q0 -40 -15 -54q-26 -26 -105 -26h-341q-111 0 -120 51z" />
<glyph unicode="&#xcd;" d="M159 51v29q0 43 15 54q26 26 105 25q63 0 85 54q6 11 6 29v927q0 51 -54 74q-17 9 -37 9q-111 0 -120 48v31q0 43 15 57q26 23 105 23h341q114 0 120 -49v-31q0 -43 -15 -60q-26 -20 -105 -19q-60 0 -82 -49q-9 -17 -9 -34v-927q0 -51 57 -74q14 -9 34 -9q114 0 120 -51 v-28q0 -40 -15 -54q-26 -26 -105 -26h-341q-111 0 -120 51zM299 1436q0 20 8 37q11 31 51 74q154 159 200 185q43 26 88 26q11 0 25 -3q37 -6 51 -45q3 -11 3 -31.5t-5 -45.5q-11 -46 -77 -94q-148 -105 -213 -140q-34 -17 -69 -22q-48 0 -57 28q-5 17 -5 31z" />
<glyph unicode="&#xce;" d="M60 1465q0 46 48 94l199 196l34 34q60 54 103 54q60 0 105 -51l256 -259q40 -37 40 -71q0 -20 -14 -43q-20 -31 -52 -31q-26 0 -59 26l-43 40l-225 224l-259 -244q-40 -40 -82 -40q-9 0 -17 3q-34 5 -34 68zM159 51v29q0 43 15 54q26 26 105 25q63 0 85 54q6 11 6 29v927 q0 51 -54 74q-17 9 -37 9q-111 0 -120 48v31q0 43 15 57q26 23 105 23h341q114 0 120 -49v-31q0 -43 -15 -60q-26 -20 -105 -19q-60 0 -82 -49q-9 -17 -9 -34v-927q0 -51 57 -74q14 -9 34 -9q114 0 120 -51v-28q0 -40 -15 -54q-26 -26 -105 -26h-341q-111 0 -120 51z" />
<glyph unicode="&#xcf;" d="M91 1636q0 46 35.5 81t81.5 35q48 0 82 -34q31 -34 31 -82q0 -80 -71 -106q-17 -9 -42 -8q-74 0 -108 68q-9 20 -9 46zM159 51v29q0 43 15 54q26 26 105 25q63 0 85 54q6 11 6 29v927q0 51 -54 74q-17 9 -37 9q-111 0 -120 48v31q0 43 15 57q26 23 105 23h341 q114 0 120 -49v-31q0 -43 -15 -60q-26 -20 -105 -19q-60 0 -82 -49q-9 -17 -9 -34v-927q0 -51 57 -74q14 -9 34 -9q114 0 120 -51v-28q0 -40 -15 -54q-26 -26 -105 -26h-341q-111 0 -120 51zM589 1636q0 74 68 108q23 9 48 8q46 0 80 -35.5t34 -81t-34 -82.5 q-31 -31 -80 -31q-82 0 -108 68q-8 20 -8 46z" />
<glyph unicode="&#xd1;" d="M0 148v1234q0 111 51 117q14 3 29 3q60 0 108 -48q14 -17 24 -34.5t10 -20.5l529 -935q37 -51 65 -52v942q0 91 46 105q11 3 25 3q34 0 49 -17q23 -26 23 -91v-1235q0 -114 -52 -119h-31q-77 0 -117 65q-14 17 -22 37l-532 950l-26 37q-11 14 -37 15v-956 q0 -100 -45 -102q-14 -3 -26 -3q-37 0 -48 11q-23 23 -23 94zM68 1630q0 23 14 51q28 71 117 105q54 23 108 23q31 0 68 -6l177 -88q37 -14 71 -14q14 0 28 6q28 3 60 45q46 57 88 57q26 0 49 -20q20 -14 20 -40q0 -37 -43 -96q-37 -51 -128 -83q-37 -11 -77 -11 q-34 0 -68 5q-54 6 -168 77q-43 23 -80 23q-48 0 -85 -40q-43 -57 -85 -57q-14 0 -26 9q-40 14 -40 54z" />
<glyph unicode="&#xd2;" d="M0 475v455q0 472 449 472h23q313 0 401 -264q31 -91 32 -208v-455q0 -353 -262 -444q-74 -28 -174 -28h-20q-449 0 -449 472zM125 1678q0 20 3 32q14 40 51 45q14 3 26 3q46 0 88 -26q46 -26 199 -185q43 -43 54 -74q9 -17 9 -37q0 -14 -9 -31q-9 -28 -57 -28 q-31 6 -68 22q-63 34 -211 140q-68 48 -82 94q-3 25 -3 45zM159 466q0 -151 74 -229t216.5 -78t217.5 78.5t75 228.5v473q0 151 -75 227.5t-218 76.5q-290 -6 -290 -304v-473z" />
<glyph unicode="&#xd3;" d="M0 475v455q0 472 449 472h23q313 0 401 -264q31 -91 32 -208v-455q0 -353 -262 -444q-74 -28 -174 -28h-20q-449 0 -449 472zM159 466q0 -151 74 -229t216.5 -78t217.5 78.5t75 228.5v473q0 151 -75 227.5t-218 76.5q-290 -6 -290 -304v-473zM358 1431q0 20 9 37 q11 31 51 74q154 159 199 185q43 26 88 25q11 0 26 -3q37 -6 51 -45q3 -11 3 -31t-6 -46q-11 -46 -76 -94q-148 -105 -214 -139q-34 -17 -68 -23q-48 0 -57 28q-6 18 -6 32z" />
<glyph unicode="&#xd4;" d="M0 475v455q0 472 449 472h23q313 0 401 -264q31 -91 32 -208v-455q0 -353 -262 -444q-74 -28 -174 -28h-20q-449 0 -449 472zM68 1465q0 46 49 94l199 196l34 34q60 54 102 54q60 0 106 -51l256 -259q40 -37 39 -71q0 -20 -14 -43q-20 -31 -51 -31q-26 0 -60 26l-42 40 l-225 224l-259 -244q-40 -40 -83 -40q-9 0 -17 3q-34 5 -34 68zM159 466q0 -151 74 -229t216.5 -78t217.5 78.5t75 228.5v473q0 151 -75 227.5t-218 76.5q-290 -6 -290 -304v-473z" />
<glyph unicode="&#xd5;" d="M0 475v455q0 472 449 472h23q313 0 401 -264q31 -91 32 -208v-455q0 -353 -262 -444q-74 -28 -174 -28h-20q-449 0 -449 472zM63 1618q0 23 14 52q28 71 116 105q54 23 109 23q31 0 68 -6l176 -88q37 -14 71 -14q14 0 29 5q28 3 59 46q46 57 89 57q26 0 48 -20 q20 -14 20 -40q0 -37 -43 -97q-37 -51 -128 -82q-37 -11 -77 -12q-34 0 -68 6q-54 6 -168 77q-43 23 -79 23q-48 0 -86 -40q-43 -57 -85 -57q-14 0 -26 8q-39 14 -39 54zM159 466q0 -151 74 -229t216.5 -78t217.5 78.5t75 228.5v473q0 151 -75 227.5t-218 76.5 q-290 -6 -290 -304v-473z" />
<glyph unicode="&#xd6;" d="M0 475v455q0 472 449 472h23q313 0 401 -264q31 -91 32 -208v-455q0 -353 -262 -444q-74 -28 -174 -28h-20q-449 0 -449 472zM40 1573q0 74 68 105q20 9 46 9q46 0 81 -35.5t35 -78.5q0 -48 -37 -85q-31 -31 -79 -32q-80 0 -108 69q-6 22 -6 48zM159 466q0 -151 74 -229 t216.5 -78t217.5 78.5t75 228.5v473q0 151 -75 227.5t-218 76.5q-290 -6 -290 -304v-473zM668 1573q0 43 36 78.5t81 35.5q48 0 83 -34q31 -31 31 -80q0 -82 -68 -108q-20 -9 -46 -9q-74 0 -108 69q-9 22 -9 48z" />
<glyph unicode="&#xd8;" d="M-37 -88q0 34 23 82l828 1616q40 80 85 80h14q65 -14 65 -69q0 -37 -25 -85l-825 -1616q-46 -80 -82 -79h-15q-43 14 -51 28q-17 15 -17 43zM0 475v549q0 475 449 475h23q313 0 401 -265q31 -91 32 -210v-549q0 -353 -262 -444q-74 -28 -174 -28h-20q-449 0 -449 472z M159 466q0 -151 74 -229t216.5 -78t217.5 78.5t75 228.5v569q0 154 -75 229.5t-218 75.5q-290 -6 -290 -305v-569z" />
<glyph unicode="&#xd9;" d="M0 395v987q0 111 51 117q14 3 29 3q43 0 54 -17q26 -23 25 -103v-918q0 -137 94 -225q82 -80 213 -80q193 0 254 148q23 48 22 111v964q0 111 49 117q17 3 31 3q40 0 51 -17q31 -26 32 -103v-1035q0 -134 -134 -245q-122 -102 -305 -102q-77 0 -170 28q-74 23 -148 80 q-102 80 -134 199q-14 42 -14 88zM228 1434q0 20 2 31q14 40 52 45q14 3 25 3q46 0 88 -25q46 -26 199 -185q43 -43 55 -74q9 -17 8 -37q0 -14 -8 -31q-9 -28 -57 -29q-31 6 -69 23q-63 34 -210 139q-68 48 -83 94q-2 26 -2 46z" />
<glyph unicode="&#xda;" d="M0 395v987q0 111 51 117q14 3 29 3q43 0 54 -17q26 -23 25 -103v-918q0 -137 94 -225q82 -80 213 -80q193 0 254 148q23 48 22 111v964q0 111 49 117q17 3 31 3q40 0 51 -17q31 -26 32 -103v-1035q0 -134 -134 -245q-122 -102 -305 -102q-77 0 -170 28q-74 23 -148 80 q-102 80 -134 199q-14 42 -14 88zM262 1192q0 20 8 37q11 31 51 74q154 159 200 185q43 26 88 25q11 0 25 -3q37 -6 52 -45q3 -11 2.5 -31t-5.5 -46q-11 -46 -77 -94q-148 -105 -213 -139q-34 -17 -69 -23q-48 0 -57 29q-5 17 -5 31z" />
<glyph unicode="&#xdb;" d="M0 395v987q0 111 51 117q14 3 29 3q43 0 54 -17q26 -23 25 -103v-918q0 -137 94 -225q82 -80 213 -80q193 0 254 148q23 48 22 111v964q0 111 49 117q17 3 31 3q40 0 51 -17q31 -26 32 -103v-1035q0 -134 -134 -245q-122 -102 -305 -102q-77 0 -170 28q-74 23 -148 80 q-102 80 -134 199q-14 42 -14 88zM68 1260q0 46 49 94l199 196l34 34q60 54 102 54q60 0 106 -51l256 -259q40 -37 39 -71q0 -20 -14 -42q-20 -31 -51 -32q-26 0 -60 26l-42 40l-225 224l-259 -244q-40 -40 -83 -40q-9 0 -17 3q-34 5 -34 68z" />
<glyph unicode="&#xdc;" d="M0 395v987q0 111 51 117q14 3 29 3q43 0 54 -17q26 -23 25 -103v-918q0 -139 94 -225q85 -80 213 -80q193 0 254 148q23 48 22 111v964q0 111 49 117q17 3 31 3q40 0 51 -17q31 -26 32 -103v-1035q0 -134 -134 -245q-122 -102 -305 -102q-77 0 -170 28q-74 23 -148 80 q-102 80 -134 199q-14 42 -14 88zM0 1746q0 74 71 106q20 9 46 8q40 0 79 -34q34 -28 34 -80q0 -74 -71 -108q-20 -9 -42 -8q-46 0 -86 34q-31 25 -31 82zM688 1746q0 74 71 106q17 9 43 8q43 0 83 -34q34 -28 34 -80q0 -74 -71 -108q-23 -9 -46 -8q-43 0 -82 34 q-32 25 -32 82z" />
<glyph unicode="&#xdd;" d="M20 1411q0 26 11 45q17 28 49 29q37 0 68 -31q20 -17 31 -43l211 -418q57 -117 94 -117t93 120l188 392q26 54 57 71q17 9 28 9q26 0 49 -23q20 -17 20 -46q0 -11 -3 -22q-3 -23 -17 -49l-205 -429l-97 -205q-51 -119 -51 -193v-382q0 -114 -51 -119h-29q-43 0 -54 14 q-26 26 -25 108v376q0 128 -91 304l-46 97l-210 432q-20 46 -20 80zM370 1442q0 20 8 37q11 31 52 74q154 159 199 185q43 26 88 26q11 0 25 -3q37 -6 52 -46q3 -11 2.5 -31t-5.5 -46q-11 -46 -77 -93q-148 -105 -213 -140q-34 -17 -69 -23q-48 0 -57 29q-5 17 -5 31z" />
<glyph unicode="&#xe0;" d="M0 293q0 236 202 284q94 20 216 20h202q82 0 83 120q0 108 -134 156q-46 17 -103 17q-154 -9 -221 -99q-23 -26 -43 -57q-14 -31 -57 -40q-14 -6 -26 -6q-20 0 -39 9q-46 23 -46 117q0 105 125 176q122 68 293 68h32q185 0 301 -111q97 -97 97 -236v-498q0 -26 23 -71 q17 -40 17 -71t-49 -51q-26 -6 -44 -6t-38 6q-71 31 -97 31q-23 0 -31 -5q-6 -6 -16 -10l-24 -10q-6 -6 -71 -20q-37 -6 -134 -6h-57q-54 0 -139 17q-114 17 -176 105q-46 66 -46 171zM159 298.5q0 -79.5 60 -110.5q54 -34 174 -34h42q208 0 256 93q11 26 12 52 q0 80 -54 113q-60 37 -205 37q-165 -6 -219 -37q-66 -34 -66 -113.5zM228 1434q0 20 2 31q14 40 52 45q14 3 25 3q46 0 88 -25q46 -26 199 -185q43 -43 55 -74q9 -17 8 -37q0 -14 -8 -31q-9 -28 -57 -29q-31 6 -69 23q-63 34 -210 139q-68 48 -83 94q-2 26 -2 46z" />
<glyph unicode="&#xe1;" d="M0 293q0 236 202 284q94 20 216 20h202q82 0 83 120q0 108 -134 156q-46 17 -103 17q-154 -9 -221 -99q-23 -26 -43 -57q-14 -31 -57 -40q-14 -6 -26 -6q-20 0 -39 9q-46 23 -46 117q0 105 125 176q122 68 293 68h32q185 0 301 -111q97 -97 97 -236v-498q0 -26 23 -71 q17 -40 17 -71t-49 -51q-26 -6 -44 -6t-38 6q-71 31 -97 31q-23 0 -31 -5q-6 -6 -16 -10l-24 -10q-6 -6 -71 -20q-37 -6 -134 -6h-57q-54 0 -139 17q-114 17 -176 105q-46 66 -46 171zM159 298.5q0 -79.5 60 -110.5q54 -34 174 -34h42q208 0 256 93q11 26 12 52 q0 80 -54 113q-60 37 -205 37q-165 -6 -219 -37q-66 -34 -66 -113.5zM415 1192q0 20 9 37q11 31 51 74q154 159 199 185q43 26 88 25q11 0 26 -3q37 -6 51 -45q3 -11 3 -31t-6 -46q-11 -46 -77 -94q-148 -105 -213 -139q-34 -17 -68 -23q-48 0 -57 29q-6 17 -6 31z" />
<glyph unicode="&#xe2;" d="M0 293q0 236 202 284q94 20 216 20h202q82 0 83 120q0 108 -134 156q-46 17 -103 17q-154 -9 -221 -99q-23 -26 -43 -57q-14 -31 -57 -40q-14 -6 -26 -6q-20 0 -39 9q-46 23 -46 117q0 105 125 176q122 68 293 68h32q185 0 301 -111q97 -97 97 -236v-498q0 -26 23 -71 q17 -40 17 -71t-49 -51q-26 -6 -44 -6t-38 6q-71 31 -97 31q-23 0 -31 -5q-6 -6 -16 -10l-24 -10q-6 -6 -71 -20q-37 -6 -134 -6h-57q-54 0 -139 17q-114 17 -176 105q-46 66 -46 171zM100 1189q0 46 48 94l199 196l34 34q60 54 103 54q60 0 105 -51l256 -259q40 -37 40 -71 q0 -20 -15 -43q-20 -31 -51 -31q-26 0 -60 26l-42 40l-225 224l-259 -244q-40 -40 -82 -40q-9 0 -17 3q-34 5 -34 68zM159 298.5q0 -79.5 60 -110.5q54 -34 174 -34h42q208 0 256 93q11 26 12 52q0 80 -54 113q-60 37 -205 37q-165 -6 -219 -37q-66 -34 -66 -113.5z" />
<glyph unicode="&#xe3;" d="M0 293q0 236 202 284q94 20 216 20h202q82 0 83 120q0 108 -134 156q-46 17 -103 17q-154 -9 -221 -99q-23 -26 -43 -57q-14 -31 -57 -40q-14 -6 -26 -6q-20 0 -39 9q-46 23 -46 117q0 105 125 176q122 68 293 68h32q185 0 301 -111q97 -97 97 -236v-498q0 -26 23 -71 q17 -40 17 -71t-49 -51q-26 -6 -44 -6t-38 6q-71 31 -97 31q-23 0 -31 -5q-6 -6 -16 -10l-24 -10q-6 -6 -71 -20q-37 -6 -134 -6h-57q-54 0 -139 17q-114 17 -176 105q-46 66 -46 171zM82 1232q0 23 15 51q28 71 116 105q54 23 108 23q31 0 69 -6l176 -88q37 -14 71 -14 q14 0 29 5q28 3 59 46q46 57 89 57q26 0 48 -20q20 -14 20 -40q0 -37 -43 -97q-37 -51 -128 -82q-37 -11 -77 -11q-34 0 -68 5q-54 6 -168 77q-43 23 -79 23q-48 0 -86 -40q-43 -57 -85 -57q-14 0 -26 9q-40 14 -40 54zM159 298.5q0 -79.5 60 -110.5q54 -34 174 -34h42 q208 0 256 93q11 26 12 52q0 80 -54 113q-60 37 -205 37q-165 -6 -219 -37q-66 -34 -66 -113.5z" />
<glyph unicode="&#xe4;" d="M0 293q0 236 202 284q94 20 216 20h202q82 0 83 120q0 108 -134 156q-46 17 -103 17q-154 -9 -221 -99q-23 -26 -43 -57q-14 -31 -57 -40q-14 -6 -26 -6q-20 0 -39 9q-46 23 -46 117q0 105 125 176q122 68 293 68h32q185 0 301 -111q97 -97 97 -236v-498q0 -26 23 -71 q17 -40 17 -71t-49 -51q-26 -6 -44 -6t-38 6q-71 31 -97 31q-23 0 -31 -5q-6 -6 -16 -10l-24 -10q-6 -6 -71 -20q-37 -6 -134 -6h-57q-54 0 -139 17q-114 17 -176 105q-46 66 -46 171zM97 1345q0 46 35.5 81.5t80.5 35.5q48 0 83 -34q31 -34 31 -83q0 -80 -71 -105 q-17 -9 -43 -8q-74 0 -108 68q-8 19 -8 45zM159 298.5q0 -79.5 60 -110.5q54 -34 174 -34h42q208 0 256 93q11 26 12 52q0 80 -54 113q-60 37 -205 37q-165 -6 -219 -37q-66 -34 -66 -113.5zM594 1345q0 74 69 109q23 9 48 8q46 0 80 -35.5t34 -81t-34 -82.5 q-31 -31 -80 -31q-82 0 -108 68q-9 19 -9 45z" />
<glyph unicode="&#xe5;" d="M0 293q0 236 202 284q94 20 216 20h202q82 0 83 120q0 108 -134 156q-46 17 -103 17q-154 -9 -221 -99q-23 -26 -43 -57q-14 -31 -57 -40q-14 -6 -26 -6q-20 0 -39 9q-46 23 -46 117q0 105 125 176q122 68 293 68h32q188 0 301 -108q97 -94 97 -239v-498q0 -31 23 -74 q17 -40 17 -68q0 -31 -49 -51q-26 -6 -44 -6t-38 6q-71 31 -97 31q-23 0 -31 -5q-6 -6 -16 -10l-24 -10q-6 -6 -71 -20q-37 -6 -134 -6h-57q-54 0 -139 17q-114 17 -176 105q-46 66 -46 171zM159 298.5q0 -79.5 60 -110.5q54 -34 174 -34h42q208 0 256 93q11 26 12 52 q0 80 -54 113q-60 37 -205 37q-165 -6 -219 -37q-66 -34 -66 -113.5zM213 1425q0 94 69 168q71 68 173 68q105 0 174 -68q71 -74 71 -168q0 -100 -71 -168q-77 -71 -172.5 -71t-174.5 71q-69 68 -69 168zM336 1425q0 -65 68 -97q20 -11 43 -11q43 0 79 34q34 31 34 74 q0 68 -71 100q-20 6 -42 5q-46 0 -80 -31q-31 -26 -31 -74z" />
<glyph unicode="&#xe8;" d="M0 321v296q0 242 117 344q111 100 335 100q205 0 359 -119q60 -46 102 -126q28 -65 29 -125v-23q-6 -91 -49 -119q-34 -26 -153 -26h-507q-74 0 -74 -119q0 -108 97 -185q91 -68 230 -68q100 0 208 68q28 20 51 46q51 63 111 73h6q14 0 28 -11q23 -11 23 -45 q0 -14 -6 -37q-14 -48 -45 -80l-71 -63q-117 -102 -325 -102q-233 0 -369 117q-97 76 -97 204zM193 762q0 -74 37 -85q17 -3 43 -3h353q114 0 114 51q0 60 -52 111q-80 74 -240.5 74t-231.5 -88q-23 -26 -23 -60zM228 1434q0 20 2 31q14 40 52 45q14 3 25 3q46 0 88 -25 q46 -26 199 -185q43 -43 55 -74q9 -17 8 -37q0 -14 -8 -31q-9 -28 -57 -29q-31 6 -69 23q-63 34 -210 139q-68 48 -83 94q-2 26 -2 46z" />
<glyph unicode="&#xe9;" d="M0 321v296q0 242 117 344q111 100 335 100q205 0 359 -119q60 -46 102 -126q28 -65 29 -125v-23q-6 -91 -49 -119q-34 -26 -153 -26h-507q-74 0 -74 -119q0 -108 97 -185q91 -68 230 -68q100 0 208 68q28 20 51 46q51 63 111 73h6q14 0 28 -11q23 -11 23 -45 q0 -14 -6 -37q-14 -48 -45 -80l-71 -63q-117 -102 -325 -102q-233 0 -369 117q-97 76 -97 204zM193 762q0 -74 37 -85q17 -3 43 -3h353q114 0 114 51q0 60 -52 111q-80 74 -240.5 74t-231.5 -88q-23 -26 -23 -60zM415 1192q0 20 9 37q11 31 51 74q154 159 199 185 q43 26 88 25q11 0 26 -3q37 -6 51 -45q3 -11 3 -31t-6 -46q-11 -46 -77 -94q-148 -105 -213 -139q-34 -17 -68 -23q-48 0 -57 29q-6 17 -6 31z" />
<glyph unicode="&#xea;" d="M0 321v296q0 242 117 344q111 100 335 100q205 0 359 -119q60 -46 102 -126q28 -65 29 -125v-23q-6 -91 -49 -119q-34 -26 -153 -26h-507q-74 0 -74 -119q0 -108 97 -185q91 -68 230 -68q100 0 208 68q28 20 51 46q51 63 111 73h6q14 0 28 -11q23 -11 23 -45 q0 -14 -6 -37q-14 -48 -45 -80l-71 -63q-117 -102 -325 -102q-233 0 -369 117q-97 76 -97 204zM100 1189q0 46 48 94l199 196l34 34q60 54 103 54q60 0 105 -51l256 -259q40 -37 40 -71q0 -20 -15 -43q-20 -31 -51 -31q-26 0 -60 26l-42 40l-225 224l-259 -244 q-40 -40 -82 -40q-9 0 -17 3q-34 5 -34 68zM193 762q0 -74 37 -85q17 -3 43 -3h353q114 0 114 51q0 60 -52 111q-80 74 -240.5 74t-231.5 -88q-23 -26 -23 -60z" />
<glyph unicode="&#xeb;" d="M0 321v296q0 242 117 344q111 100 335 100q205 0 359 -119q60 -46 102 -126q28 -65 29 -125v-23q-6 -91 -49 -119q-34 -26 -153 -26h-507q-74 0 -74 -119q0 -108 97 -185q91 -68 230 -68q100 0 208 68q28 20 51 46q51 63 111 73h6q14 0 28 -11q23 -11 23 -45 q0 -14 -6 -37q-14 -48 -45 -80l-71 -63q-117 -102 -325 -102q-233 0 -369 117q-97 76 -97 204zM97 1345q0 46 35.5 81.5t80.5 35.5q48 0 83 -34q31 -34 31 -83q0 -80 -71 -105q-17 -9 -43 -8q-74 0 -108 68q-8 19 -8 45zM193 762q0 -74 37 -85q17 -3 43 -3h353q114 0 114 51 q0 60 -52 111q-80 74 -240.5 74t-231.5 -88q-23 -26 -23 -60zM594 1345q0 74 69 109q23 9 48 8q46 0 80 -35.5t34 -81t-34 -82.5q-31 -31 -80 -31q-82 0 -108 68q-9 19 -9 45z" />
<glyph unicode="&#xec;" d="M159 51v29q0 46 15 59q28 20 105 20h111q57 0 68 11.5t11 71.5v560q0 43 -51 71q-17 11 -28 12q-142 0 -151 48q-6 14 -6 31q0 48 69 71q23 9 54 9h153q114 0 120 -80v-42v-680q0 -60 11 -68q9 -14 71 -15h66q117 0 122 -51v-28q0 -46 -12 -57q-28 -23 -110 -23h-498 q-111 0 -120 51zM228 1434q0 20 2 31q14 40 52 45q14 3 25 3q46 0 88 -25q46 -26 199 -185q43 -43 55 -74q9 -17 8 -37q0 -14 -8 -31q-9 -28 -57 -29q-31 6 -69 23q-63 34 -210 139q-68 48 -83 94q-2 26 -2 46z" />
<glyph unicode="&#xed;" d="M159 51v29q0 46 15 59q28 20 105 20h111q57 0 68 11.5t11 71.5v560q0 43 -51 71q-17 11 -28 12q-142 0 -151 48q-6 14 -6 31q0 48 69 71q23 9 54 9h153q114 0 120 -80v-42v-680q0 -60 11 -68q9 -14 71 -15h66q117 0 122 -51v-28q0 -46 -12 -57q-28 -23 -110 -23h-498 q-111 0 -120 51zM415 1192q0 20 9 37q11 31 51 74q154 159 199 185q43 26 88 25q11 0 26 -3q37 -6 51 -45q3 -11 3 -31t-6 -46q-11 -46 -77 -94q-148 -105 -213 -139q-34 -17 -68 -23q-48 0 -57 29q-6 17 -6 31z" />
<glyph unicode="&#xee;" d="M100 1189q0 46 48 94l199 196l34 34q60 54 103 54q60 0 105 -51l256 -259q40 -37 40 -71q0 -20 -15 -43q-20 -31 -51 -31q-26 0 -60 26l-42 40l-225 224l-259 -244q-40 -40 -82 -40q-9 0 -17 3q-34 5 -34 68zM159 51v29q0 46 15 59q28 20 105 20h111q57 0 68 11.5 t11 71.5v560q0 43 -51 71q-17 11 -28 12q-142 0 -151 48q-6 14 -6 31q0 48 69 71q23 9 54 9h153q114 0 120 -80v-42v-680q0 -60 11 -68q9 -14 71 -15h66q117 0 122 -51v-28q0 -46 -12 -57q-28 -23 -110 -23h-498q-111 0 -120 51z" />
<glyph unicode="&#xef;" d="M97 1345q0 46 35.5 81.5t80.5 35.5q48 0 83 -34q31 -34 31 -83q0 -80 -71 -105q-17 -9 -43 -8q-74 0 -108 68q-8 19 -8 45zM159 51v29q0 46 15 59q28 20 105 20h111q57 0 68 11.5t11 71.5v560q0 43 -51 71q-17 11 -28 12q-142 0 -151 48q-6 14 -6 31q0 48 69 71 q23 9 54 9h153q114 0 120 -80v-42v-680q0 -60 11 -68q9 -14 71 -15h66q117 0 122 -51v-28q0 -46 -12 -57q-28 -23 -110 -23h-498q-111 0 -120 51zM594 1345q0 74 69 109q23 9 48 8q46 0 80 -35.5t34 -81t-34 -82.5q-31 -31 -80 -31q-82 0 -108 68q-9 19 -9 45z" />
<glyph unicode="&#xf1;" d="M0 122v820q0 114 51 119h29q68 0 79 -48q0 -6 15 -6q20 0 71 14q128 40 264 40q182 0 307 -88q131 -88 131 -253v-598q0 -117 -48 -122h-31q-37 0 -52 14q-28 28 -28 108v518q0 179 -185 242q-60 17 -134 17q-222 0 -290 -179q-20 -48 -20 -100v-498q0 -117 -51 -122h-28 q-40 0 -54 14q-26 26 -26 108zM82 1232q0 23 15 51q28 71 116 105q54 23 108 23q31 0 69 -6l176 -88q37 -14 71 -14q14 0 29 5q28 3 59 46q46 57 89 57q26 0 48 -20q20 -14 20 -40q0 -37 -43 -97q-37 -51 -128 -82q-37 -11 -77 -11q-34 0 -68 5q-54 6 -168 77q-43 23 -79 23 q-48 0 -86 -40q-43 -57 -85 -57q-14 0 -26 9q-40 14 -40 54z" />
<glyph unicode="&#xf2;" d="M0 475v114q0 282 100 381q91 91 295 91h54q253 0 353 -94q102 -97 103 -378v-114q0 -225 -55 -319q-40 -74 -105 -105q-97 -48 -244 -48h-52q-205 0 -295 43q-71 34 -103 99q-51 100 -51 330zM159 466q0 -171 60 -236q63 -71 230 -71q171 0 232 68.5t61 238.5v131 q0 165 -54 228q-63 74 -216 74h-23q-174 0 -236 -77q-54 -60 -54 -225v-131zM228 1434q0 20 2 31q14 40 52 45q14 3 25 3q46 0 88 -25q46 -26 199 -185q43 -43 55 -74q9 -17 8 -37q0 -14 -8 -31q-9 -28 -57 -29q-31 6 -69 23q-63 34 -210 139q-68 48 -83 94q-2 26 -2 46z " />
<glyph unicode="&#xf3;" d="M0 475v114q0 282 100 381q91 91 295 91h54q253 0 353 -94q102 -97 103 -378v-114q0 -225 -55 -319q-40 -74 -105 -105q-97 -48 -244 -48h-52q-205 0 -295 43q-71 34 -103 99q-51 100 -51 330zM159 466q0 -171 60 -236q63 -71 230 -71q171 0 232 68.5t61 238.5v131 q0 165 -54 228q-63 74 -216 74h-23q-174 0 -236 -77q-54 -60 -54 -225v-131zM415 1192q0 20 9 37q11 31 51 74q154 159 199 185q43 26 88 25q11 0 26 -3q37 -6 51 -45q3 -11 3 -31t-6 -46q-11 -46 -77 -94q-148 -105 -213 -139q-34 -17 -68 -23q-48 0 -57 29q-6 17 -6 31z " />
<glyph unicode="&#xf4;" d="M0 475v114q0 282 100 381q91 91 295 91h54q253 0 353 -94q102 -97 103 -378v-114q0 -225 -55 -319q-40 -74 -105 -105q-97 -48 -244 -48h-52q-205 0 -295 43q-71 34 -103 99q-51 100 -51 330zM100 1189q0 46 48 94l199 196l34 34q60 54 103 54q60 0 105 -51l256 -259 q40 -37 40 -71q0 -20 -15 -43q-20 -31 -51 -31q-26 0 -60 26l-42 40l-225 224l-259 -244q-40 -40 -82 -40q-9 0 -17 3q-34 5 -34 68zM159 466q0 -171 60 -236q63 -71 230 -71q171 0 232 68.5t61 238.5v131q0 165 -54 228q-63 74 -216 74h-23q-174 0 -236 -77 q-54 -60 -54 -225v-131z" />
<glyph unicode="&#xf5;" d="M0 475v114q0 282 100 381q91 91 295 91h54q253 0 353 -94q102 -97 103 -378v-114q0 -225 -55 -319q-40 -74 -105 -105q-97 -48 -244 -48h-52q-205 0 -295 43q-71 34 -103 99q-51 100 -51 330zM82 1232q0 23 15 51q28 71 116 105q54 23 108 23q31 0 69 -6l176 -88 q37 -14 71 -14q14 0 29 5q28 3 59 46q46 57 89 57q26 0 48 -20q20 -14 20 -40q0 -37 -43 -97q-37 -51 -128 -82q-37 -11 -77 -11q-34 0 -68 5q-54 6 -168 77q-43 23 -79 23q-48 0 -86 -40q-43 -57 -85 -57q-14 0 -26 9q-40 14 -40 54zM159 466q0 -171 60 -236 q63 -71 230 -71q171 0 232 68.5t61 238.5v131q0 165 -54 228q-63 74 -216 74h-23q-174 0 -236 -77q-54 -60 -54 -225v-131z" />
<glyph unicode="&#xf6;" d="M0 475v114q0 282 100 381q91 91 295 91h54q253 0 353 -94q102 -97 103 -378v-114q0 -225 -55 -319q-40 -74 -105 -105q-97 -48 -244 -48h-52q-205 0 -295 43q-71 34 -103 99q-51 100 -51 330zM97 1345q0 46 35.5 81.5t80.5 35.5q48 0 83 -34q31 -34 31 -83 q0 -80 -71 -105q-17 -9 -43 -8q-74 0 -108 68q-8 19 -8 45zM159 466q0 -171 60 -236q63 -71 230 -71q171 0 232 68.5t61 238.5v131q0 165 -54 228q-63 74 -216 74h-23q-174 0 -236 -77q-54 -60 -54 -225v-131zM594 1345q0 74 69 109q23 9 48 8q46 0 80 -35.5t34 -81 t-34 -82.5q-31 -31 -80 -31q-82 0 -108 68q-9 19 -9 45z" />
<glyph unicode="&#xf8;" d="M-74 -51q0 34 40 91l850 1103q51 68 91 69q11 0 17 -6q60 -23 60 -68q0 -40 -42 -91l-851 -1104q-51 -65 -91 -65q-9 0 -20 3q-37 20 -48 37q-6 14 -6 31zM0 475v114q0 282 100 381q91 91 295 91h54q253 0 353 -94q102 -97 103 -378v-114q0 -225 -55 -319 q-40 -74 -105 -105q-97 -48 -244 -48h-52q-205 0 -295 43q-71 34 -103 99q-51 100 -51 330zM159 466q0 -171 60 -236q63 -71 230 -71q171 0 232 68.5t61 238.5v131q0 165 -54 228q-63 74 -216 74h-23q-174 0 -236 -77q-54 -60 -54 -225v-131z" />
<glyph unicode="&#xf9;" d="M0 492v450q0 114 51 119h29q43 0 54 -14q26 -26 25 -105v-493q0 -193 168 -261q60 -28 145 -29q128 0 188 49q80 68 80 207l2 527q0 114 49 119h31q40 0 51 -14q31 -28 32 -105l-6 -820q0 -117 -51 -122h-29q-26 0 -57 15.5t-59 15.5h-3q-17 0 -95.5 -15.5t-132.5 -15.5 q-347 0 -441 282q-31 91 -31 210zM228 1434q0 20 2 31q14 40 52 45q14 3 25 3q46 0 88 -25q46 -26 199 -185q43 -43 55 -74q9 -17 8 -37q0 -14 -8 -31q-9 -28 -57 -29q-31 6 -69 23q-63 34 -210 139q-68 48 -83 94q-2 26 -2 46z" />
<glyph unicode="&#xfa;" d="M0 492v450q0 114 51 119h29q43 0 54 -14q26 -26 25 -105v-493q0 -193 168 -261q60 -28 145 -29q128 0 188 49q80 68 80 207l2 527q0 114 49 119h31q40 0 51 -14q31 -28 32 -105l-6 -820q0 -117 -51 -122h-29q-26 0 -57 15.5t-59 15.5h-3q-17 0 -95.5 -15.5t-132.5 -15.5 q-347 0 -441 282q-31 91 -31 210zM415 1192q0 20 9 37q11 31 51 74q154 159 199 185q43 26 88 25q11 0 26 -3q37 -6 51 -45q3 -11 3 -31t-6 -46q-11 -46 -77 -94q-148 -105 -213 -139q-34 -17 -68 -23q-48 0 -57 29q-6 17 -6 31z" />
<glyph unicode="&#xfb;" d="M0 492v450q0 114 51 119h29q43 0 54 -14q26 -26 25 -105v-493q0 -193 168 -261q60 -28 145 -29q128 0 188 49q80 68 80 207l2 527q0 114 49 119h31q40 0 51 -14q31 -28 32 -105l-6 -820q0 -117 -51 -122h-29q-26 0 -57 15.5t-59 15.5h-3q-17 0 -95.5 -15.5t-132.5 -15.5 q-347 0 -441 282q-31 91 -31 210zM100 1189q0 46 48 94l199 196l34 34q60 54 103 54q60 0 105 -51l256 -259q40 -37 40 -71q0 -20 -15 -43q-20 -31 -51 -31q-26 0 -60 26l-42 40l-225 224l-259 -244q-40 -40 -82 -40q-9 0 -17 3q-34 5 -34 68z" />
<glyph unicode="&#xfc;" d="M0 492v450q0 114 51 119h29q43 0 54 -14q26 -26 25 -105v-493q0 -193 168 -261q60 -28 145 -29q128 0 188 49q80 68 80 207l2 527q0 114 49 119h31q40 0 51 -14q31 -28 32 -105l-6 -820q0 -117 -51 -122h-29q-26 0 -57 15.5t-59 15.5h-3q-17 0 -95.5 -15.5t-132.5 -15.5 q-347 0 -441 282q-31 91 -31 210zM97 1345q0 46 35.5 81.5t80.5 35.5q48 0 83 -34q31 -34 31 -83q0 -80 -71 -105q-17 -9 -43 -8q-74 0 -108 68q-8 19 -8 45zM594 1345q0 74 69 109q23 9 48 8q46 0 80 -35.5t34 -81t-34 -82.5q-31 -31 -80 -31q-82 0 -108 68q-9 19 -9 45z " />
<glyph unicode="&#xfd;" d="M17 1004q0 28 14 48q17 28 51 29q60 0 97 -74l196 -418q51 -119 94 -120q34 0 94 120l177 395q34 74 82 77q9 3 11 3q26 0 43 -23t17 -48q0 -31 -20 -71l-330 -729l-131 -301q-82 -171 -145 -205q-77 -34 -142 -34q-26 0 -48 6q-20 3 -26 5q-9 6 -11 20q-6 9 -6 14 q0 26 31 57q17 23 60 40q94 46 168 159q54 88 60 137q3 17 3 37q0 88 -40 196q-37 88 -50 114t-21 51l-205 441q-23 40 -23 74zM415 1192q0 20 9 37q11 31 51 74q154 159 199 185q43 26 88 25q11 0 26 -3q37 -6 51 -45q3 -11 3 -31t-6 -46q-11 -46 -77 -94 q-148 -105 -213 -139q-34 -17 -68 -23q-48 0 -57 29q-6 17 -6 31z" />
<glyph unicode="&#xff;" d="M17 1004q0 28 14 48q17 28 51 29q60 0 97 -74l196 -418q51 -119 94 -120q34 0 94 120l177 395q34 74 82 77q9 3 11 3q26 0 43 -23t17 -48q0 -31 -20 -71l-330 -729l-131 -301q-82 -171 -145 -205q-77 -34 -142 -34q-26 0 -48 6q-20 3 -26 5q-9 6 -11 20q-6 9 -6 14 q0 26 31 57q17 23 60 40q94 46 168 159q54 88 60 137q3 17 3 37q0 88 -40 196q-37 88 -50 114t-21 51l-205 441q-23 40 -23 74zM97 1345q0 46 35.5 81.5t80.5 35.5q48 0 83 -34q31 -34 31 -83q0 -80 -71 -105q-17 -9 -43 -8q-74 0 -108 68q-8 19 -8 45zM594 1345 q0 74 69 109q23 9 48 8q46 0 80 -35.5t34 -81t-34 -82.5q-31 -31 -80 -31q-82 0 -108 68q-9 19 -9 45z" />
<glyph unicode="&#x131;" d="M159 51v29q0 46 15 59q28 20 105 20h111q57 0 68 11.5t11 71.5v560q0 43 -51 71q-17 11 -28 12q-142 0 -151 48q-6 14 -6 31q0 48 69 71q23 9 54 9h153q114 0 120 -80v-42v-680q0 -60 11 -68q9 -14 71 -15h66q117 0 122 -51v-28q0 -46 -12 -57q-28 -23 -110 -23h-498 q-111 0 -120 51z" />
<glyph unicode="&#x300;" d="M228 1434q0 20 2 31q14 40 52 45q14 3 25 3q46 0 88 -25q46 -26 199 -185q43 -43 55 -74q9 -17 8 -37q0 -14 -8 -31q-9 -28 -57 -29q-31 6 -69 23q-63 34 -210 139q-68 48 -83 94q-2 26 -2 46z" />
<glyph unicode="&#x301;" d="M415 1192q0 20 9 37q11 31 51 74q154 159 199 185q43 26 88 25q11 0 26 -3q37 -6 51 -45q3 -11 3 -31t-6 -46q-11 -46 -77 -94q-148 -105 -213 -139q-34 -17 -68 -23q-48 0 -57 29q-6 17 -6 31z" />
<glyph unicode="&#x302;" d="M100 1189q0 46 48 94l199 196l34 34q60 54 103 54q60 0 105 -51l256 -259q40 -37 40 -71q0 -20 -15 -43q-20 -31 -51 -31q-26 0 -60 26l-42 40l-225 224l-259 -244q-40 -40 -82 -40q-9 0 -17 3q-34 5 -34 68z" />
<glyph unicode="&#x303;" d="M82 1232q0 23 15 51q28 71 116 105q54 23 108 23q31 0 69 -6l176 -88q37 -14 71 -14q14 0 29 5q28 3 59 46q46 57 89 57q26 0 48 -20q20 -14 20 -40q0 -37 -43 -97q-37 -51 -128 -82q-37 -11 -77 -11q-34 0 -68 5q-54 6 -168 77q-43 23 -79 23q-48 0 -86 -40 q-43 -57 -85 -57q-14 0 -26 9q-40 14 -40 54z" />
<glyph unicode="&#x308;" d="M97 1345q0 46 35.5 81.5t80.5 35.5q48 0 83 -34q31 -34 31 -83q0 -80 -71 -105q-17 -9 -43 -8q-74 0 -108 68q-8 19 -8 45zM594 1345q0 74 69 109q23 9 48 8q46 0 80 -35.5t34 -81t-34 -82.5q-31 -31 -80 -31q-82 0 -108 68q-9 19 -9 45z" />
<glyph unicode="&#x2000;" horiz-adv-x="975" />
<glyph unicode="&#x2001;" horiz-adv-x="1951" />
<glyph unicode="&#x2002;" horiz-adv-x="975" />
<glyph unicode="&#x2003;" horiz-adv-x="1951" />
<glyph unicode="&#x2004;" horiz-adv-x="648" />
<glyph unicode="&#x2005;" horiz-adv-x="486" />
<glyph unicode="&#x2006;" horiz-adv-x="324" />
<glyph unicode="&#x2007;" horiz-adv-x="324" />
<glyph unicode="&#x2008;" horiz-adv-x="241" />
<glyph unicode="&#x2009;" horiz-adv-x="389" />
<glyph unicode="&#x200a;" horiz-adv-x="108" />
<glyph unicode="&#x2010;" d="M77 455v40q0 57 25 71q17 9 46 9h373h-3h-9h310q139 0 139.5 -80t-139.5 -80h-603q-133 0 -139 40z" />
<glyph unicode="&#x2011;" d="M77 455v40q0 57 25 71q17 9 46 9h373h-3h-9h310q139 0 139.5 -80t-139.5 -80h-603q-133 0 -139 40z" />
<glyph unicode="&#x2012;" d="M77 455v40q0 57 25 71q17 9 46 9h373h-3h-9h310q139 0 139.5 -80t-139.5 -80h-603q-133 0 -139 40z" />
<glyph unicode="&#x2013;" horiz-adv-x="1311" d="M77 455v40q0 57 30 71q20 9 52 9h433h-3h-10h360q162 0 162 -80t-162 -80h-700q-155 0 -162 40z" />
<glyph unicode="&#x2014;" horiz-adv-x="2335" d="M77 455v40q0 57 59 71q40 9 106 9h865h-6h-20h720q324 0 324 -80t-324 -80h-1400q-311 0 -324 40z" />
<glyph unicode="&#x202f;" horiz-adv-x="389" />
<glyph unicode="&#x205f;" horiz-adv-x="486" />
<glyph unicode="&#x20ac;" d="M-131 569v40q0 57 26 68q14 11 45 11h373h-6h-8h313q137 0 136 -79q0 -82 -136 -83h-606q-131 0 -137 43zM-131 873v40q0 57 26 71q14 9 45 9h373h-6h-8h313q137 0 136.5 -80t-136.5 -80h-606q-131 0 -137 40zM65 296v893q0 148 140 250q85 63 165 63h287q85 0 185 -48 q51 -28 102 -80q37 -43 60 -103q9 -28 9 -54q0 -97 -49 -111q-14 -3 -31 -2q-46 0 -77 48q-14 20 -25 43q-9 20 -54 76q-46 68 -120 69h-270q-63 0 -114 -60q-48 -63 -48 -128v-802q0 -63 51 -125q63 -65 122 -66h259q63 0 94 29q40 34 51 68q40 94 94 94h9q68 0 68 -80 q0 -20 -3 -45q-20 -105 -102 -168q-82 -57 -211 -57h-301q-117 0 -234 142q-57 74 -57 154z" />
<glyph unicode="&#xe000;" horiz-adv-x="1070" d="M0 1070h1070v-1070h-1070v1070z" />
<glyph d="M0 94v25q3 26 6 40l313 1084q51 171 193 171q105 0 171 -108q20 -37 34 -86l293 -1078q9 -28 8 -54q0 -85 -82 -85q-60 0 -68 25q-6 17 -13 45l-19 69l-45 160q-34 128 -131 128h-330q-97 0 -117 -100l-45 -202q-20 -88 -71 -119q-17 -6 -32 -6h-14q-51 0 -51 91z M307 649q0 -48 91 -49h168q46 0 91 43q34 28 34 57q0 11 -3 17l-128 444q-9 26 -51 59q-31 20 -48 20q-14 0 -20 -8l-125 -535q-9 -28 -9 -48z" />
<glyph d="M0 475v455q0 472 449 472h23q313 0 401 -264q31 -91 32 -208v-455q0 -353 -262 -444q-74 -28 -174 -28h-20q-449 0 -449 472zM159 466q0 -151 74 -229t216.5 -78t217.5 78.5t75 228.5v473q0 151 -75 227.5t-218 76.5q-290 -6 -290 -304v-473z" />
<glyph d="M159 51v29q0 43 15 54q26 26 105 25q63 0 85 54q6 11 6 29v927q0 51 -54 74q-17 9 -37 9q-111 0 -120 48v31q0 43 15 57q26 23 105 23h341q114 0 120 -49v-31q0 -43 -15 -60q-26 -20 -105 -19q-60 0 -82 -49q-9 -17 -9 -34v-927q0 -51 57 -74q14 -9 34 -9q114 0 120 -51 v-28q0 -40 -15 -54q-26 -26 -105 -26h-341q-111 0 -120 51z" />
</font>
</defs>
</svg>
